<?xml version="1.0" encoding="utf-8"?>
<!-- Generator: Adobe Illustrator 27.2.0, SVG Export Plug-In . SVG Version: 6.00 Build 0)  -->
<svg version="1.1" id="Слой_1" xmlns="http://www.w3.org/2000/svg" xmlns:xlink="http://www.w3.org/1999/xlink" x="0px" y="0px"
	 viewBox="0 0 600 1100" style="enable-background:new 0 0 600 1100;" xml:space="preserve">
<style type="text/css">
	.st0{fill:#715841;}
	.st1{fill:#644D3A;}
	.st2{fill:#29553D;}
	.st3{fill:#EACB47;}
	.st4{fill:#FFFFFF;}
</style>
<g>
	<g>
		<polygon class="st0" points="369.94,815.49 389.66,1067.79 232.92,1067.79 248.52,815.49 		"/>
		<g>
			<g>
				<path class="st1" d="M355.9,831.46c-6.15,10.59-8.81,23.16-8.04,35.34c0.39,6.12,1.63,12.2,3.75,17.95
					c2.21,6,5.4,11.56,7.98,17.4c2.65,5.99,4.31,12.17,4.1,18.76c-0.19,6.22-1.72,12.31-3.4,18.27
					c-3.22,11.37-7.21,22.94-5.23,34.91c1.75,10.63,7.3,20.15,12.47,29.42c5.2,9.33,10.65,19.12,11.53,29.99
					c0.43,5.35-0.3,10.92-3.06,15.61c-2.72,4.61-7.43,7.62-12.87,7.36c-5.44-0.25-10.52-3.39-13.98-7.47
					c-4.12-4.86-5.82-11.38-6.55-17.58c-0.38-3.22-0.52-6.46-0.59-9.7c-0.07-2.97-0.45-6.33,0.69-9.15c1.16-2.86,4.04-4.18,7-4.03
					c3.09,0.16,5.73,1.96,7.77,4.16c2.21,2.38,3.94,5.25,5.42,8.12c1.57,3.04,2.92,6.3,3.71,9.64c0.76,3.21,0.75,6.88-1.76,9.35
					c-2.16,2.12-5.22,2.06-7.34-0.05c-1.79-1.78-2.79-4.27-3.58-6.62c-0.21-0.63-1.22-0.36-1.01,0.28c1.4,4.11,4.37,10.39,9.82,8.84
					c2.46-0.7,4.31-2.94,4.99-5.33c0.93-3.26,0.04-6.74-1.02-9.85c-1.14-3.35-2.64-6.58-4.47-9.62c-1.62-2.69-3.49-5.38-5.97-7.34
					c-3.94-3.12-10.64-4.11-13.82,0.66c-1.67,2.5-1.59,5.72-1.54,8.6c0.06,3.43,0.14,6.87,0.46,10.28
					c0.58,6.35,1.97,13.01,5.69,18.32c3.08,4.4,7.79,7.91,13.08,9.12c5.23,1.19,10.62-0.27,14.34-4.19
					c7.75-8.18,6.56-21.11,3.17-30.91c-3.75-10.84-10.33-20.37-15.42-30.57c-2.57-5.16-4.79-10.54-5.93-16.21
					c-1.27-6.32-0.86-12.71,0.43-18.99c2.59-12.63,8.41-24.93,7.92-38.06c-0.52-13.89-9.86-24.95-13.62-37.92
					c-3.73-12.85-3.27-26.87,1.11-39.5c1.09-3.16,2.45-6.23,3.99-9.19C356.19,831.44,355.98,831.32,355.9,831.46L355.9,831.46z"/>
			</g>
		</g>
		<g>
			<g>
				<path class="st1" d="M328.17,1059.22c-4.83-10.87-8.62-22.31-8.31-34.34c0.15-5.84,1.32-11.68,3.71-17.03
					c2.54-5.68,6.37-10.64,9.39-16.05c5.78-10.38,8.6-22.06,10.17-33.76c0.8-5.93,1.29-11.9,1.7-17.87
					c0.44-6.34,1.1-12.78,0.47-19.13c-0.54-5.44-2.17-10.74-5.62-15.07c-3.1-3.89-7.59-6.57-12.63-6.73
					c-5.08-0.16-10.03,2.12-13.78,5.45c-4.16,3.69-6.75,8.82-8.33,14.08c-1.75,5.82-2.43,11.99-2.76,18.04
					c-0.36,6.64-0.11,13.31,0.74,19.91c0.68,5.28,1.59,11.32,5.61,15.21c3.18,3.08,8.73,4.49,12.43,1.48
					c2.03-1.65,2.99-4.22,3.74-6.65c0.94-3.09,1.7-6.25,2.28-9.43c1.14-6.28,1.57-12.69,1.28-19.06c-0.14-3.04-0.35-6.15-0.96-9.13
					c-0.49-2.4-1.52-4.84-3.75-6.1c-1.9-1.07-4.31-1.19-6.31-0.34c-2.08,0.89-3.46,2.81-3.8,5.03c-0.33,2.11,0.26,4.28,1.71,5.86
					c0.45,0.48,1.17-0.24,0.72-0.72c-1.58-1.71-1.93-4.34-1.01-6.46c0.93-2.16,3.12-3.32,5.42-3.24c6.18,0.21,6.44,7.83,6.8,12.41
					c0.49,6.17,0.29,12.4-0.59,18.53c-0.43,3.01-1.03,6-1.79,8.95c-0.67,2.61-1.31,5.44-2.77,7.74c-1.36,2.14-3.54,3.33-6.07,3.26
					c-2.32-0.06-4.64-1.07-6.35-2.63c-4.04-3.68-4.9-9.73-5.55-14.87c-0.8-6.29-1.05-12.65-0.75-18.98
					c0.28-5.83,0.9-11.74,2.44-17.38c1.42-5.19,3.75-10.32,7.67-14.11c3.55-3.44,8.38-5.85,13.4-5.81
					c5.02,0.04,9.45,2.77,12.45,6.69c3.3,4.31,4.77,9.62,5.19,14.97c0.47,6.02-0.12,12.09-0.53,18.1
					c-0.39,5.65-0.84,11.29-1.56,16.91c-1.43,11.2-3.96,22.44-9.17,32.53c-2.71,5.24-6.28,9.98-9.03,15.19
					c-2.53,4.78-4.11,9.96-4.77,15.32c-1.36,10.95,1.02,22.11,5.08,32.26c0.99,2.48,2.13,4.87,3.42,7.21
					C327.92,1059.72,328.29,1059.49,328.17,1059.22L328.17,1059.22z"/>
			</g>
		</g>
		<g>
			<g>
				<path class="st1" d="M306.36,861.48c-7.22,8.16-12.56,17.72-16.46,27.87c-4,10.38-6.41,21.35-7.83,32.36
					c-1.43,11.08-1.92,22.35-1.51,33.52c0.2,5.46,0.74,10.98,2.33,16.23c1.61,5.34,4.39,9.97,8.34,13.9
					c2.08,2.07,4.31,3.99,6.22,6.22c1.89,2.21,3.38,4.75,4.47,7.44c2.11,5.24,2.82,10.94,3.05,16.55
					c0.44,10.92,0.17,23.54-6.69,32.66c-5.42,7.21-17.3,11.67-25.04,5.4c-4.2-3.4-5.97-8.81-6.87-13.95
					c-0.97-5.56-1.47-11.59-0.04-17.12c1.31-5.09,4.55-9.44,9.64-11.17c4.69-1.59,9.68-0.22,12.13,4.27c1.23,2.25,1.7,4.86,1.85,7.4
					c0.15,2.46,0.11,5.04-0.36,7.47c-0.45,2.36-1.61,5.03-4.22,5.55c-2.32,0.47-5.03-0.89-5.59-3.29c-0.53-2.25,0.77-4.82,2.95-5.63
					c0.62-0.23,0.35-1.24-0.28-1.01c-4.36,1.62-5.32,7.93-1.08,10.3c1.9,1.07,4.38,1.12,6.2-0.15c2.01-1.4,2.85-3.84,3.2-6.16
					c0.75-4.88,0.7-10.76-1.77-15.17c-2.41-4.31-7.13-6.14-11.88-5.09c-5.04,1.1-8.98,4.78-10.94,9.47
					c-2.34,5.61-2.11,11.96-1.35,17.87c0.68,5.28,1.93,10.79,5.36,15.01c3.15,3.87,7.92,5.77,12.86,5.47
					c4.89-0.3,9.63-2.46,13.27-5.7c4.15-3.69,6.66-8.94,8.05-14.24c1.54-5.84,1.83-11.94,1.81-17.95c-0.02-5.9-0.37-11.9-2-17.6
					c-0.78-2.75-1.88-5.44-3.37-7.89c-1.61-2.64-3.71-4.87-5.94-7c-2.29-2.19-4.65-4.33-6.5-6.92c-1.7-2.39-3.01-5.03-3.97-7.8
					c-1.97-5.67-2.57-11.72-2.78-17.69c-0.21-5.99-0.12-12,0.17-17.98c0.59-12.03,2.15-24.04,5.29-35.68
					c3.08-11.42,7.71-22.47,14.19-32.39c1.63-2.49,3.35-4.93,5.18-7.28C306.53,861.51,306.43,861.4,306.36,861.48L306.36,861.48z"/>
			</g>
		</g>
		<g>
			<g>
				<path class="st1" d="M249.16,1062.43c-2.77-6.11-4.44-12.54-4.57-19.27c-0.13-6.59,1.07-13.2,3.54-19.32
					c2.45-6.09,6.21-11.67,11.06-16.11c2.84-2.6,6.12-4.69,8.79-7.49c2.33-2.45,4-5.43,4.92-8.68c1.9-6.71,0.83-14.07-1.6-20.5
					c-2.87-7.6-7.6-14.31-11.6-21.33c-4.06-7.12-6.97-14.66-8.22-22.79c-1.23-7.98-0.99-16.18,0.32-24.13
					c1.3-7.93,3.59-15.79,6.81-23.15c1.5-3.44,3.61-7.14,7.47-8.23c3.16-0.89,6.79,0.58,6.79,4.24c0,1.34-0.58,2.64-1.83,3.24
					c-0.65,0.32-0.08,1.29,0.57,0.98c2.49-1.21,2.99-4.37,1.92-6.74c-1.36-3.01-4.98-3.75-7.92-2.87c-3.68,1.1-5.99,4.3-7.56,7.62
					c-1.75,3.68-3.13,7.57-4.34,11.46c-4.92,15.8-6.08,33.33-0.54,49.13c2.85,8.13,7.69,15.23,11.96,22.63
					c3.99,6.91,7.35,14.28,7.57,22.39c0.1,3.67-0.45,7.42-2,10.77c-1.7,3.67-4.53,6.35-7.64,8.83c-2.92,2.33-5.76,4.66-8.19,7.51
					c-2.17,2.55-4.05,5.35-5.61,8.31c-6.26,11.94-7.48,26.61-2.44,39.21c0.61,1.52,1.32,2.97,2.16,4.39
					C249.05,1062.65,249.21,1062.55,249.16,1062.43L249.16,1062.43z"/>
			</g>
		</g>
	</g>
	<g>
		<path class="st2" d="M17.3,967.91c-3.35-6.92,38.27-40.16,49.34-68.12c-8.7,7.04-28.48,17.92-30.96,11.37
			c-2.48-6.54,45.88-54.67,52.33-88.79c-7.02,7.38-25,16.55-27.78,9.64c-2.78-6.91,43-76.48,55.97-118.27
			c-8.41,8.61-29.72,17.16-33.12,10.06c-3.4-7.1,63.16-58.74,68.86-99.16c-6.76,4.53-20.68,13.5-23.37,8.82
			c-2.69-4.68,40.7-71.57,58-104.93c-9.17,0.99-23.64,14.2-23.77,6.7c-0.13-7.5,38.18-76.11,59.14-112.3
			c-10.57,7.68-30.86,19.81-32.03,15.39c-1.17-4.42,50.71-93.64,67.31-143.34c-6.15,4.81-18.44,15.73-20.49,11.1
			c-2.06-4.63,58.71-91.49,71.96-143.73c15.05,48.35,74.04,129.38,70.96,134.64c-3.08,5.26-25.51-10.89-32.77-23.51
			c19,44.92,70.09,125.44,66.29,131.04c-3.8,5.6-18.79-2.41-26.19-9.09c19.65,31.85,39.29,63.71,58.94,95.56
			c2.15,3.49,4.38,7.6,3.04,11.47c-3.11,9-16.74,3.17-23.23-3.79c9.89,32.76,39.92,82.3,46.09,92.36
			c6.16,10.06,21.96,32.68,19.81,35.8c-2.14,3.12-12.48-0.39-23.72-8.87c3.77,45.17,68.98,110.57,60.68,119.28
			c-8.3,8.71-26.85-7.07-26.85-7.07s4.82,28.56,18.89,50.24c14.08,21.69,46.59,55.6,46.32,60.57c-0.27,4.98-26.02,1.22-38.02-4.19
			c7.28,28.4,19.43,61.42,35.77,85.77c9.19,13.69,22.59,39.72,16.77,44.99c-5.82,5.26-53.19-26.99-53.19-26.99
			s-1.65,43.56-7.85,46.13c-6.2,2.56-37.81-18.74-40.57-28.57c-6.04,9.56-15.92,54.38-24.12,46.59
			c-2.75-2.61-17.44-34.81-19.91-47.23c1.58,10.83-25.32,40.25-29.76,37.33c-4.44-2.92-8.26-31.58-8.26-31.58
			s-13.65,60.17-18.95,59.91c-5.3-0.26-26.43-53.19-29.9-53.19c-3.47,0-22.86,51.48-29.98,51.62c-7.12,0.14-18.99-47.82-18.99-47.82
			s-15.66,49.13-19.12,48.84c-3.46-0.29-21.97-26.89-24.78-41.08c-2.96,12.56-22.68,43.94-27.67,42.85
			c-4.05-0.88-15.04-29.67-16.4-40.52c-3.57,7.22-17.71,22.67-21.51,20.62c-3.8-2.05-6.56-23.47-7.24-38.23
			c-4.93,9.02-19.34,32.98-24.62,33.55c-5.28,0.57-18.32-21.78-18.17-28.95c-5.17,7.71-22.19,50.18-27.17,50.82
			c-4.98,0.64-13.31-44.22-13.31-44.22s-27.45,47.73-33.43,45.67c-5.97-2.05-4.05-33.61,1.49-50.12
			C59.02,979.6,20.65,974.83,17.3,967.91z"/>
	</g>
	<g>
		<g>
			<g>
				<g>
					<path class="st3" d="M402.4,365.5c-1.69-4.17-6.9-4.63-10.6-3.06c-5.41,2.29-6.98,8.74-7.74,13.99
						c-0.92,6.37-1.69,12.72-3.29,18.98c-1.6,6.28-3.89,12.42-7.38,17.91c-3.21,5.05-7.38,9.36-12.62,12.29
						c-4.83,2.7-10.38,4.29-15.93,4.2c-5.43-0.09-10.76-1.91-14.76-5.65c-4.4-4.11-6.76-9.74-8.3-15.45
						c-1.56-5.78-2.31-11.74-3.77-17.53c-1.34-5.3-3.56-10.53-6.89-14.89c-3.05-4.01-7.24-7.43-12.35-8.24
						c-5.29-0.84-10.33,1.09-14.31,4.54c-4.26,3.69-7.3,8.67-9.88,13.62c-3.49,6.68-6.68,13.54-10,20.31
						c-3.43,7-6.8,14.04-10.31,20.99c-2.77,5.49-6.08,11.23-11.62,14.34c-9.76,5.49-21.83,0.17-28.68-7.53
						c-9.02-10.14-9.31-25.03-8.22-37.82c0.29-3.45,0.7-6.89,1.12-10.32c0.11-0.92-1.33-0.91-1.44,0
						c-1.66,13.65-3.29,28.28,2.44,41.25c4.24,9.6,14.01,17.36,24.66,18.04c5.38,0.35,10.55-1.47,14.55-5.08
						c4.75-4.29,7.51-10.28,10.28-15.92c3.51-7.16,7.01-14.31,10.52-21.47c3.14-6.41,6.05-13,9.63-19.19
						c2.79-4.83,6.26-9.74,11.21-12.55c4.69-2.65,10.36-2.67,15.02,0.06c4.7,2.76,7.95,7.56,10.2,12.42
						c2.45,5.29,3.46,10.96,4.58,16.63c2.15,10.95,5.24,23.6,16.45,28.63c10,4.48,22.14,1.44,30.54-5.03
						c9.9-7.61,14.63-20.19,17.08-32.03c0.64-3.11,1.15-6.24,1.57-9.39c0.44-3.23,0.69-6.5,1.4-9.69c0.67-2.99,1.81-6.1,4.09-8.25
						c1.78-1.68,4.34-2.51,6.77-2.4c2.36,0.11,4.58,1.23,5.58,3.44C402.1,365.89,402.5,365.73,402.4,365.5L402.4,365.5z"/>
				</g>
			</g>
			<g>
				<g>
					<path class="st3" d="M448.33,544.89c-0.05,16.72-13.41,31.51-29.71,34.34c-17.09,2.97-33.67-8.24-42.14-22.42
						c-4.98-8.34-6.75-17.84-9.23-27.1c-2.32-8.66-5.5-17.22-12.53-23.17c-5.68-4.81-13.6-7.67-20.71-4.27
						c-7.36,3.52-10.64,12.03-12.29,19.5c-3.79,17.14-2.36,36.17-11.06,51.94c-4.1,7.43-10.48,13.18-18.46,16.14
						c-7.56,2.81-16.02,3.17-23.77,0.88c-16.56-4.9-27.2-21.69-28.28-38.39c-0.31-4.84,0.36-9.54,1.13-14.3
						c0.77-4.75,1.54-9.67,0.62-14.46c-1.33-6.89-6.69-13.97-14.49-12.53c-7.04,1.3-11.31,9.05-14.07,14.93
						c-1.86,3.98-3.32,8.14-5.11,12.16c-2.06,4.61-4.36,9.11-6.89,13.48c-4.98,8.62-10.82,16.9-17.61,24.2
						c-5.91,6.36-14.05,12.43-23.22,9.88c-3.74-1.04-6.89-3.44-8.48-7.02c-0.38-0.85-1.63-0.11-1.26,0.73
						c3.06,6.91,11.51,9.56,18.5,7.84c9.06-2.23,15.67-10.15,21.22-17.12c6.25-7.86,11.69-16.37,16.2-25.35
						c2.22-4.43,4.16-8.97,5.98-13.57c1.49-3.75,3.19-7.46,5.41-10.85c1.99-3.04,4.59-6.17,8.11-7.47
						c3.78-1.39,7.83-0.08,10.48,2.86c7.06,7.87,3.26,19.24,2.21,28.46c-1.87,16.5,5.46,34.27,19.52,43.49
						c13.35,8.76,31.92,7.81,44.39-2.14c14.09-11.25,15.87-30.62,17.88-47.24c1.06-8.78,1.85-18.35,5.99-26.32
						c1.99-3.83,4.95-7.29,9.07-8.86c3.83-1.46,8.02-1.02,11.73,0.57c19.12,8.18,17.75,32.72,25.28,48.89
						c6.88,14.77,21.3,26.97,37.94,28.19c15.88,1.16,31.46-9.55,36.66-24.51c1.28-3.67,1.75-7.53,1.5-11.41
						C448.82,544.56,448.33,544.55,448.33,544.89L448.33,544.89z"/>
				</g>
			</g>
			<g>
				<g>
					<path class="st3" d="M115.18,679.27c-3.23,7.52-5.75,15.32-7.44,23.33c-1.53,7.25-2.65,14.82-2.34,22.25
						c0.25,5.94,1.46,12.15,4.94,17.1c3.4,4.84,8.7,7.76,14.6,8.08c14.31,0.79,24.64-10.62,30.22-22.52
						c3.26-6.97,5.58-14.35,8.24-21.55c3.08-8.36,6.28-16.7,9.81-24.89c2.94-6.81,6.61-14.1,13.03-18.26
						c5.95-3.85,14.5-4.99,20,0.29c4.91,4.71,5.61,12.23,5.71,18.65c0.12,8.08-0.27,16.16-0.03,24.25
						c0.46,15.45,2.28,32.15,10.15,45.79c3.16,5.48,7.47,10.58,13.1,13.64c5.78,3.13,12.5,3.6,18.71,1.51
						c14.67-4.95,21.7-19.54,26.4-33.17c2.85-8.27,5.51-16.6,8.25-24.91c2.61-7.91,4.95-15.97,7.94-23.74
						c2.24-5.81,5.33-12.22,10.7-15.75c6.3-4.14,13.81-2.06,18.8,3.12c5.67,5.88,7.23,14.25,8.83,21.96
						c1.68,8.11,3.82,16.1,6.53,23.92c2.7,7.79,5.91,15.41,9.6,22.78c3.02,6.01,6.34,13.04,12.9,15.84
						c12.18,5.19,25.51-3.49,32.36-13.17c8.6-12.16,10.06-26.91,9.38-41.4c-0.41-8.84-1.48-17.63-1.78-26.47
						c-0.25-7.31-0.63-16.56,5.44-21.83c5.6-4.86,14.11-4.4,20.32-1.07c6.81,3.65,11.77,10.07,15.73,16.53
						c8.34,13.59,12.47,29.16,17.23,44.23c3.42,10.84,7.89,25.51,20.1,29.29c5.99,1.86,12.22,0.01,17.01-3.83
						c5.43-4.36,8.6-10.7,9.78-17.48c1.35-7.82,0.39-15.79-0.6-23.6c-0.13-1.06-1.82-1.07-1.68,0c1.84,14.54,3.43,33.88-11.9,42
						c-6.19,3.28-13.28,2.25-18.48-2.36c-4.8-4.25-7.72-10.37-9.9-16.29c-5.2-14.1-8.44-28.84-14.7-42.56
						c-5.38-11.79-14.11-26.82-27.94-29.69c-5.72-1.19-12.22-0.09-16.56,4.03c-4.94,4.68-5.6,11.92-5.59,18.34
						c0.02,17.2,4.1,34.71,0.85,51.82c-2.33,12.25-9.29,25.11-20.93,30.69c-6.56,3.15-15.4,4.01-21.22-1.08
						c-2.78-2.44-4.68-5.7-6.4-8.93c-1.89-3.54-3.65-7.14-5.3-10.79c-3.43-7.61-6.34-15.46-8.71-23.46
						c-2.3-7.76-3.63-15.7-5.65-23.51c-1.73-6.67-4.59-13.17-10.23-17.41c-4.76-3.58-10.94-4.66-16.39-2
						c-5.05,2.46-8.44,7.47-10.85,12.37c-3.2,6.49-5.13,13.56-7.39,20.41c-2.78,8.43-5.56,16.85-8.34,25.28
						c-2.52,7.65-4.9,15.43-8.74,22.54c-3.66,6.78-8.76,12.76-15.7,16.3c-6.66,3.4-14.42,3.78-21.08,0.17
						c-12.95-7.02-18.11-23.38-20.5-36.91c-1.49-8.45-1.96-17.04-2.07-25.61c-0.09-7.54,0.45-15.14,0.02-22.68
						c-0.33-5.74-1.45-11.94-5.51-16.3c-4.2-4.5-10.58-5.49-16.34-3.88c-14.33,4-19.46,20.57-24.33,32.86
						c-3.11,7.84-5.99,15.75-8.84,23.68c-2.57,7.15-5.33,14.37-9.8,20.58c-4.14,5.76-9.87,10.23-16.82,12
						c-6.65,1.7-13.79,0.44-18.61-4.7c-4.48-4.78-6-11.61-6.33-17.96c-0.4-7.53,0.73-15.19,2.24-22.55c1.61-7.85,4-15.51,7.07-22.91
						C116.4,679.13,115.43,678.71,115.18,679.27L115.18,679.27z"/>
				</g>
			</g>
			<g>
				<g>
					<path class="st3" d="M60.58,880.94c5.4,3.63,12.2,3.85,18.26,1.85c6.7-2.22,12.04-7.03,16.5-12.35
						c5.13-6.13,9.66-12.8,14.38-19.25c5.38-7.35,10.75-14.7,16.13-22.06c4.48-6.13,9.19-13.36,16.57-16.28
						c3.52-1.39,7.5-1.2,10.42,1.4c2.66,2.37,3.58,6.04,3.91,9.45c0.36,3.66,0.06,7.38-0.08,11.05c-0.17,4.59-0.34,9.19-0.51,13.78
						c-0.31,8.47-0.94,17.03-0.03,25.48c1.47,13.53,8.21,25.57,20.16,32.49c11.07,6.41,24.73,6.74,36.07,0.78
						c5.56-2.92,10.33-7.33,13.39-12.84c3.69-6.66,4.92-14.26,6.59-21.6c3.13-13.73,8.05-27.77,17.7-38.34
						c4.65-5.09,13.21-13.19,20.73-9.95c3.6,1.55,6.54,5.21,8.76,8.34c2.03,2.86,3.7,5.98,5.09,9.2
						c6.19,14.43,6.47,30.51,11.78,45.2c4.53,12.52,13.75,24.32,27.35,27.36c12.5,2.8,23.68-4.07,30.17-14.46
						c7.5-12,8.08-25.93,9.75-39.58c1.72-14.11,6.38-33.91,22.85-37.26c16.82-3.42,28.78,12.41,36.09,25.01
						c3.62,6.24,7.12,12.51,11.65,18.15c4.33,5.39,9.34,10.22,14.9,14.34c10.84,8.03,24.09,13.26,37.71,12.88
						c6.38-0.18,13.62-1.12,17.27-7.01c4-6.44,5.44-15.18,6.04-22.61c0.6-7.37-0.29-14.71-0.67-22.07
						c-0.36-7.09-0.34-14.64,2.92-21.13c5.51-10.98,19.01-13.58,29.64-8.69c4.73,2.18,8.69,5.89,10.46,10.86
						c0.4,1.11,2.19,0.63,1.79-0.49c-3.38-9.49-13.5-14.58-23.17-14.6c-11.62-0.02-20.32,7.66-22.71,18.94
						c-1.43,6.74-0.9,13.71-0.43,20.52c0.57,8.14,0.88,16.15-0.73,24.21c-0.84,4.2-1.95,8.58-3.81,12.45
						c-1.96,4.08-5.22,6.17-9.59,7.06c-7.16,1.46-14.86,0.81-21.87-1.07c-13.98-3.74-26.29-12.68-35.48-23.71
						c-9.67-11.61-14.4-27.26-26.12-37.17c-10.25-8.67-24.92-11.53-35.43-1.7c-11.06,10.33-12.47,26.63-13.98,40.77
						c-1.47,13.73-3.97,28.4-14.59,38.29c-4.99,4.65-11.58,7.33-18.44,6.85c-7.41-0.51-14.26-4.4-19.44-9.57
						c-11.51-11.49-13.53-28.43-16.67-43.6c-1.45-7.01-3.27-14-6.28-20.52c-2.74-5.94-6.89-12.64-12.61-16.13
						c-6.07-3.7-12.9-0.09-17.88,3.77c-5.38,4.17-9.8,9.44-13.31,15.26c-3.54,5.87-6.18,12.28-8.25,18.81
						c-2.23,7.04-3.45,14.29-5.32,21.42c-1.93,7.4-5.11,14.19-11.1,19.13c-5.43,4.48-12.41,7.13-19.41,7.69
						c-14.02,1.11-27.6-6.74-34.6-18.78c-4.15-7.13-5.42-15.38-5.63-23.52c-0.22-8.74,0.38-17.52,0.68-26.25
						c0.24-7.08,1.5-15.05-0.55-21.98c-1.58-5.32-6.05-9.29-11.82-8.77c-6.22,0.56-11.53,5.51-15.34,10.06
						c-5.42,6.47-10.11,13.67-15.08,20.49c-5.31,7.29-10.61,14.59-15.93,21.88c-4.62,6.33-9.61,12.87-16.59,16.74
						c-6.59,3.65-15.16,4.66-21.76,0.55C60.54,879.82,60.09,880.61,60.58,880.94L60.58,880.94z"/>
				</g>
			</g>
			<g>
				<g>
					<path class="st3" d="M377.03,310.49c-0.1-1.6-0.41-3.05-0.93-4.56c-0.52-1.49-1.15-2.93-1.89-4.32
						c-1.49-2.8-3.47-5.38-5.75-7.59c-4.52-4.39-10.36-7.52-16.62-8.46c-6.7-1.01-13.94,0.36-19.24,4.75
						c-5.29,4.37-7.42,11.12-9.67,17.34c-1.13,3.12-2.34,6.24-4.09,9.08c-1.79,2.91-4.2,5.43-7,7.38c-2.8,1.96-5.96,3.39-9.29,4.16
						c-3.32,0.77-7.28,1.12-10.52-0.14c-3.25-1.26-5.25-4.54-6.66-7.55c-1.29-2.75-2.14-5.69-2.93-8.62
						c-1.5-5.61-2.67-11.64-6.05-16.49c-1.75-2.51-4.08-4.61-6.88-5.88c-3.14-1.42-6.64-1.87-10.06-1.54
						c-7.63,0.74-14.08,5.09-19.72,10.01c-1.4,1.22-2.77,2.49-4.13,3.76c-0.77,0.72,0.39,1.86,1.15,1.15
						c5.42-5.06,11.25-10.38,18.54-12.48c6.44-1.85,13.73-0.99,18.4,4.17c3.84,4.23,5.2,10.12,6.59,15.5
						c1.5,5.76,3.04,12.15,7.17,16.68c2.64,2.89,6.24,3.77,10.03,3.7c3.34-0.06,6.66-0.78,9.75-2.06
						c6.17-2.55,11.18-7.19,14.19-13.14c2.99-5.92,4.29-12.57,7.59-18.34c1.65-2.89,3.86-5.41,6.71-7.18
						c2.9-1.8,6.26-2.82,9.65-3.14c12.94-1.21,25.35,7.55,29.86,19.52c0.54,1.43,1.02,2.91,1.48,4.36
						C376.76,310.7,377.04,310.68,377.03,310.49L377.03,310.49z"/>
				</g>
			</g>
		</g>
		<g>
			<g>
				<g>
					<path class="st4" d="M353.49,337.2c-0.14,0.8-0.17,1.61-0.21,2.42c-0.05,0.87-0.07,1.75-0.1,2.62
						c-0.06,1.94-0.11,3.88-0.14,5.83c-0.06,4.28-0.06,8.56-0.07,12.85c0,4.29,0.06,8.58,0.13,12.87c0.05,3.54,0.11,7.09,0.17,10.63
						c0.02,1.29,0.05,2.58,0.08,3.87c0.01,0.49,0.02,0.97,0.03,1.46c0.01,0.37-0.05,0.84,0.09,1.18c0.06,0.16,0.12,0.37,0.24,0.49
						c-0.03-0.08-0.07-0.17-0.1-0.25c0,0.14,0.03,0.29,0.05,0.43c0,0.02,0,0.04,0.01,0.06c0,0.01,0,0.02,0,0.02
						c0,0.03,0.01,0.06,0.01,0.09c0.03,0.16,0.04-0.04-0.01-0.07c0,0,0,0.03,0,0.04c0.01,0.38,0.61,0.38,0.6,0
						c0-0.01-0.01-0.03,0-0.04c0,0-0.05,0.22-0.02,0.1c0.01-0.04,0.02-0.08,0.03-0.12c0-0.01,0-0.02,0-0.02c0-0.02,0-0.04,0-0.07
						c0.01-0.14,0.03-0.29,0.03-0.43c-0.03,0.08-0.07,0.17-0.1,0.25c0.25-0.28,0.28-0.75,0.27-1.1c-0.01-0.43-0.03-0.85-0.04-1.28
						c-0.04-1.19-0.07-2.38-0.11-3.57c-0.1-3.41-0.19-6.81-0.26-10.22c-0.09-4.21-0.16-8.42-0.21-12.63c-0.05-4.33-0.11-8.66-0.1-13
						c0.01-3.74,0.05-7.47,0.12-11.21c0.01-0.38,0-0.76-0.03-1.14C353.84,337.05,353.53,336.98,353.49,337.2L353.49,337.2z"/>
				</g>
			</g>
			<g>
				<g>
					<path class="st4" d="M379.24,346.54c-0.75,0.42-1.41,0.95-2.12,1.44c-0.75,0.51-1.47,1.06-2.21,1.59
						c-1.52,1.09-3.05,2.17-4.58,3.25c-3.27,2.31-6.57,4.58-9.88,6.84c-3.42,2.33-6.86,4.64-10.31,6.93
						c-3.36,2.24-6.73,4.45-10.11,6.66c-1.59,1.03-3.18,2.07-4.77,3.09c-0.76,0.49-1.52,0.98-2.29,1.47
						c-0.73,0.47-1.49,0.92-2.2,1.43c-0.35,0.26-0.67,0.56-0.99,0.85c-0.22,0.21,0.01,0.67,0.31,0.54c0.4-0.17,0.81-0.32,1.18-0.53
						c0.38-0.21,0.75-0.46,1.12-0.7c0.75-0.48,1.5-0.97,2.24-1.46c1.58-1.03,3.16-2.06,4.74-3.1c3.35-2.2,6.69-4.42,10.02-6.65
						c3.44-2.31,6.86-4.64,10.27-7c3.32-2.3,6.62-4.62,9.9-6.98c2.99-2.16,5.96-4.35,8.86-6.62c0.34-0.27,0.66-0.54,0.97-0.85
						C379.5,346.64,379.36,346.47,379.24,346.54L379.24,346.54z"/>
				</g>
			</g>
			<g>
				<g>
					<path class="st4" d="M330.58,349.52c0.64,0.7,1.36,1.31,2.09,1.92c0.72,0.61,1.47,1.2,2.22,1.79c1.49,1.17,3.01,2.29,4.56,3.38
						c3.12,2.2,6.34,4.27,9.65,6.19c3.29,1.91,6.66,3.67,10.1,5.29c3.54,1.66,7.16,3.13,10.74,4.68c3.57,1.55,7.12,3.17,10.47,5.15
						c0.21,0.13,0.42,0.27,0.64,0.38c0.22,0.11,0.46,0.18,0.69,0.26c0.37,0.13,0.63-0.38,0.37-0.64c-0.16-0.16-0.32-0.34-0.5-0.47
						c-0.22-0.15-0.46-0.28-0.69-0.41c-0.41-0.24-0.82-0.48-1.24-0.71c-0.85-0.47-1.71-0.92-2.58-1.36
						c-1.74-0.87-3.51-1.68-5.29-2.46c-3.58-1.56-7.21-2.98-10.78-4.57c-3.47-1.55-6.88-3.25-10.2-5.1
						c-3.32-1.85-6.57-3.84-9.72-5.96c-3.15-2.13-6.19-4.4-9.2-6.72c-0.38-0.29-0.77-0.57-1.18-0.82
						C330.6,349.25,330.49,349.42,330.58,349.52L330.58,349.52z"/>
				</g>
			</g>
			<g>
				<g>
					<path class="st4" d="M360.8,338.98c-1.22,1.27-2.34,2.63-3.48,3.98c-0.55,0.66-1.11,1.32-1.66,1.98
						c-0.56,0.67-1.2,1.31-1.68,2.04c-0.17,0.26,0.21,0.54,0.42,0.33c0.62-0.61,1.13-1.36,1.67-2.04c0.55-0.69,1.11-1.38,1.66-2.07
						c1.09-1.36,2.18-2.7,3.18-4.13C360.97,339,360.86,338.92,360.8,338.98L360.8,338.98z"/>
				</g>
			</g>
			<g>
				<g>
					<path class="st4" d="M345.52,338.65c1.07,1.67,2.59,2.96,4.1,4.21c0.77,0.63,1.54,1.26,2.29,1.9c0.37,0.32,0.74,0.64,1.1,0.96
						c0.37,0.34,0.72,0.76,1.13,1.04c0.26,0.18,0.61-0.18,0.43-0.43c-0.27-0.4-0.7-0.73-1.06-1.05c-0.38-0.34-0.76-0.66-1.15-0.98
						c-0.76-0.62-1.54-1.21-2.31-1.81c-1.56-1.22-3.07-2.5-4.48-3.89C345.55,338.58,345.5,338.62,345.52,338.65L345.52,338.65z"/>
				</g>
			</g>
			<g>
				<g>
					<path class="st4" d="M374.18,342.69c-0.63,0.46-0.98,1.3-1.28,1.99c-0.33,0.78-0.59,1.59-0.85,2.39
						c-0.6,1.87-1.2,3.74-1.85,5.6c-0.12,0.36,0.46,0.52,0.57,0.16c0.51-1.83,1.08-3.65,1.64-5.46c0.25-0.8,0.49-1.6,0.79-2.38
						c0.15-0.4,0.34-0.79,0.52-1.17c0.17-0.35,0.38-0.7,0.51-1.07C374.26,342.71,374.22,342.67,374.18,342.69L374.18,342.69z"/>
				</g>
			</g>
			<g>
				<g>
					<path class="st4" d="M380.34,354.78c-2.86-0.68-5.83-0.91-8.46-2.34c-0.37-0.2-0.7,0.37-0.33,0.56c2.66,1.4,5.8,1.9,8.78,1.87
						C380.38,354.88,380.4,354.79,380.34,354.78L380.34,354.78z"/>
				</g>
			</g>
			<g>
				<g>
					<path class="st4" d="M383.93,370.69c-0.37-0.11-0.83-0.01-1.21,0.03c-0.42,0.04-0.83,0.11-1.25,0.18
						c-0.9,0.15-1.78,0.35-2.66,0.56c-1.75,0.43-3.47,0.93-5.2,1.42c-0.41,0.12-0.24,0.77,0.18,0.64c1.7-0.5,3.4-1.02,5.12-1.49
						c0.85-0.23,1.71-0.45,2.57-0.66c0.41-0.1,0.82-0.18,1.23-0.27c0.39-0.09,0.88-0.12,1.23-0.33
						C383.97,370.75,383.97,370.7,383.93,370.69L383.93,370.69z"/>
				</g>
			</g>
			<g>
				<g>
					<path class="st4" d="M375.56,384.04c0.02-0.86-0.19-1.72-0.33-2.56c-0.15-0.89-0.27-1.79-0.37-2.68
						c-0.1-0.88-0.18-1.77-0.23-2.65c-0.03-0.42-0.05-0.85-0.06-1.27c-0.02-0.45,0.02-0.93-0.07-1.37c-0.07-0.33-0.64-0.35-0.69,0
						c-0.07,0.44,0,0.92,0.03,1.37c0.03,0.44,0.06,0.89,0.1,1.33c0.08,0.89,0.18,1.79,0.31,2.68c0.12,0.88,0.28,1.75,0.46,2.62
						c0.18,0.87,0.33,1.78,0.75,2.57C375.48,384.12,375.55,384.09,375.56,384.04L375.56,384.04z"/>
				</g>
			</g>
			<g>
				<g>
					<path class="st4" d="M361.86,389.24c-1.16-1.24-2.39-2.4-3.57-3.61c-1.18-1.22-2.35-2.45-3.5-3.69
						c-0.27-0.28-0.69,0.14-0.43,0.43c1.18,1.25,2.35,2.51,3.58,3.7c1.2,1.17,2.45,2.34,3.87,3.24
						C361.85,389.34,361.9,389.28,361.86,389.24L361.86,389.24z"/>
				</g>
			</g>
			<g>
				<g>
					<path class="st4" d="M346.3,389.64c0.8-0.44,1.44-1.18,2.09-1.81c0.7-0.67,1.39-1.36,2.08-2.05c0.62-0.61,1.22-1.25,1.87-1.83
						c0.3-0.27,0.61-0.53,0.95-0.76c0.33-0.22,0.75-0.36,1.05-0.62c0.2-0.17,0.05-0.58-0.23-0.55c-0.39,0.04-0.77,0.29-1.09,0.51
						c-0.34,0.23-0.67,0.48-0.97,0.76c-0.67,0.59-1.29,1.25-1.91,1.89c-0.7,0.71-1.4,1.41-2.08,2.14c-0.65,0.68-1.43,1.36-1.88,2.2
						C346.13,389.6,346.22,389.69,346.3,389.64L346.3,389.64z"/>
				</g>
			</g>
			<g>
				<g>
					<path class="st4" d="M339.01,384.59c0.34-0.81,0.5-1.68,0.66-2.54c0.17-0.9,0.33-1.79,0.49-2.69c0.17-0.9,0.34-1.79,0.53-2.69
						c0.09-0.44,0.19-0.87,0.28-1.31c0.05-0.24,0.11-0.48,0.14-0.72c0.04-0.26,0.01-0.37-0.17-0.56c-0.03-0.03-0.09-0.05-0.14-0.04
						c-0.22,0.08-0.32,0.17-0.39,0.4c-0.07,0.21-0.1,0.44-0.15,0.65c-0.09,0.44-0.18,0.88-0.26,1.32c-0.17,0.9-0.33,1.8-0.48,2.7
						c-0.14,0.87-0.28,1.74-0.38,2.61c-0.05,0.44-0.1,0.88-0.13,1.33c-0.04,0.5-0.01,0.98-0.17,1.46
						C338.79,384.62,338.96,384.7,339.01,384.59L339.01,384.59z"/>
				</g>
			</g>
			<g>
				<g>
					<path class="st4" d="M330.74,370.35c0.89,0.13,1.76,0.36,2.64,0.52c0.87,0.16,1.73,0.35,2.57,0.62
						c0.84,0.27,1.65,0.62,2.44,0.99c0.84,0.39,1.69,0.75,2.5,1.2c0.46,0.25,0.79-0.48,0.28-0.68c-1.71-0.66-3.3-1.6-5.07-2.12
						c-0.87-0.25-1.75-0.43-2.64-0.56c-0.9-0.13-1.8-0.13-2.7-0.22C330.64,370.08,330.6,370.33,330.74,370.35L330.74,370.35z"/>
				</g>
			</g>
			<g>
				<g>
					<path class="st4" d="M338.6,346.79c-0.01,0.19-0.07,0.37-0.1,0.56c-0.02,0.18-0.01,0.37-0.01,0.56c0,0.35,0,0.7,0.01,1.05
						c0.03,0.74,0.05,1.48,0.07,2.22c0.02,0.72,0.03,1.44,0.04,2.16c0.01,0.73-0.04,1.5,0.04,2.23c0.05,0.44,0.68,0.46,0.7,0
						c0.04-0.73-0.05-1.49-0.09-2.23c-0.04-0.74-0.08-1.48-0.13-2.23c-0.05-0.72-0.09-1.44-0.14-2.16
						c-0.03-0.36-0.06-0.72-0.11-1.08c-0.02-0.17-0.04-0.34-0.07-0.51c-0.04-0.2-0.14-0.38-0.17-0.58
						C338.63,346.77,338.6,346.78,338.6,346.79L338.6,346.79z"/>
				</g>
			</g>
			<g>
				<g>
					<path class="st4" d="M330.47,356.94c1.4,0.22,2.83,0.11,4.24,0.09c0.7-0.01,1.41-0.03,2.11-0.04c0.74-0.02,1.5-0.07,2.24-0.03
						c0.4,0.02,0.39-0.66,0-0.62c-0.72,0.08-1.45,0.06-2.18,0.09c-0.73,0.02-1.45,0.05-2.18,0.07c-1.42,0.05-2.85,0.02-4.24,0.31
						C330.41,356.83,330.41,356.93,330.47,356.94L330.47,356.94z"/>
				</g>
			</g>
			<g>
				<g>
					<path class="st4" d="M373.95,359.63c-0.84-0.2-1.68-0.36-2.52-0.53c-0.82-0.17-1.64-0.35-2.47-0.46
						c-0.8-0.11-1.61-0.11-2.41-0.13c-0.41-0.01-0.82-0.03-1.22-0.08c-0.38-0.04-0.81-0.23-1.19-0.17c-0.13,0.02-0.18,0.22-0.08,0.3
						c0.28,0.22,0.69,0.23,1.03,0.27c0.4,0.05,0.81,0.06,1.22,0.06c0.84,0,1.68-0.04,2.51,0.04c1.72,0.16,3.41,0.53,5.12,0.75
						C373.97,359.68,373.98,359.64,373.95,359.63L373.95,359.63z"/>
				</g>
			</g>
			<g>
				<g>
					<path class="st4" d="M366.35,348.66c-0.84,1.37-1.3,2.92-1.78,4.44c-0.24,0.78-0.48,1.55-0.76,2.32
						c-0.14,0.38-0.28,0.75-0.44,1.13c-0.16,0.36-0.4,0.73-0.49,1.12c-0.05,0.21,0.23,0.41,0.38,0.22c0.23-0.28,0.35-0.66,0.49-1
						c0.15-0.37,0.29-0.75,0.43-1.14c0.27-0.79,0.51-1.58,0.74-2.38c0.46-1.57,0.95-3.13,1.53-4.66
						C366.48,348.65,366.39,348.61,366.35,348.66L366.35,348.66z"/>
				</g>
			</g>
			<g>
				<g>
					<path class="st4" d="M358.54,348.99c-1,0.95-1.97,1.93-2.9,2.96c-0.45,0.5-0.9,1-1.34,1.5c-0.24,0.27-0.47,0.53-0.71,0.8
						c-0.22,0.25-0.47,0.49-0.65,0.77c-0.14,0.22,0.16,0.41,0.34,0.26c0.25-0.21,0.45-0.5,0.67-0.75c0.22-0.25,0.44-0.51,0.66-0.76
						c0.45-0.52,0.9-1.05,1.36-1.57c0.9-1.03,1.78-2.07,2.66-3.11C358.69,349.02,358.61,348.93,358.54,348.99L358.54,348.99z"/>
				</g>
			</g>
			<g>
				<g>
					<path class="st4" d="M346.76,348.96c0.97,1.2,2.01,2.36,3.14,3.42c0.51,0.48,1.06,0.9,1.64,1.29c0.29,0.2,0.59,0.39,0.89,0.57
						c0.29,0.18,0.6,0.45,0.93,0.53c0.24,0.06,0.41-0.23,0.24-0.41c-0.22-0.24-0.58-0.37-0.86-0.53c-0.29-0.17-0.58-0.34-0.86-0.52
						c-0.62-0.4-1.21-0.84-1.74-1.34c-0.54-0.5-1.05-1.04-1.57-1.56c-0.55-0.55-1.12-1.06-1.71-1.56
						C346.79,348.78,346.7,348.88,346.76,348.96L346.76,348.96z"/>
				</g>
			</g>
			<g>
				<g>
					<path class="st4" d="M372.13,365.33c-1.25,0.38-2.48,0.87-3.7,1.36c-0.59,0.24-1.17,0.47-1.75,0.72
						c-0.3,0.13-0.6,0.26-0.9,0.39c-0.29,0.13-0.64,0.22-0.87,0.45c-0.15,0.15-0.05,0.46,0.18,0.44c0.29-0.02,0.55-0.18,0.82-0.3
						c0.3-0.14,0.59-0.27,0.89-0.41c0.61-0.28,1.21-0.57,1.82-0.85c1.19-0.56,2.39-1.1,3.54-1.73
						C372.2,365.38,372.17,365.32,372.13,365.33L372.13,365.33z"/>
				</g>
			</g>
			<g>
				<g>
					<path class="st4" d="M366.2,377.5c-0.08-1.36-0.25-2.71-0.45-4.07c-0.1-0.68-0.19-1.36-0.29-2.03
						c-0.05-0.33-0.1-0.65-0.15-0.98c-0.05-0.33-0.06-0.73-0.23-1.03c-0.1-0.17-0.39-0.15-0.44,0.06c-0.07,0.31,0.02,0.63,0.07,0.94
						c0.05,0.33,0.1,0.66,0.15,0.98c0.11,0.7,0.22,1.39,0.34,2.08c0.23,1.37,0.47,2.72,0.81,4.07
						C366.03,377.63,366.21,377.61,366.2,377.5L366.2,377.5z"/>
				</g>
			</g>
			<g>
				<g>
					<path class="st4" d="M345.02,376.73c0.07-0.27,0.19-0.53,0.26-0.8c0.08-0.27,0.13-0.55,0.19-0.83
						c0.12-0.55,0.23-1.11,0.34-1.66c0.11-0.56,0.24-1.11,0.36-1.66c0.1-0.42,0.36-1.03,0.16-1.45c-0.03-0.06-0.14-0.1-0.2-0.05
						c-0.37,0.28-0.41,0.93-0.51,1.35c-0.13,0.57-0.25,1.15-0.36,1.73c-0.11,0.56-0.2,1.12-0.28,1.68
						c-0.04,0.26-0.07,0.52-0.09,0.78c-0.02,0.3,0.02,0.6,0,0.9C344.92,376.77,345.01,376.79,345.02,376.73L345.02,376.73z"/>
				</g>
			</g>
			<g>
				<g>
					<path class="st4" d="M338.92,366.31c0.18,0.15,0.47,0.19,0.7,0.25c0.27,0.07,0.55,0.14,0.81,0.24
						c0.58,0.21,1.13,0.49,1.66,0.81c0.52,0.32,1.01,0.67,1.48,1.06c0.48,0.38,0.9,0.83,1.38,1.21c0.24,0.19,0.55-0.1,0.35-0.35
						c-0.41-0.48-0.95-0.9-1.45-1.29c-0.5-0.39-1.01-0.76-1.56-1.07c-0.52-0.3-1.07-0.56-1.65-0.75c-0.3-0.1-0.6-0.19-0.91-0.25
						c-0.25-0.04-0.56-0.1-0.79,0.02C338.89,366.21,338.88,366.28,338.92,366.31L338.92,366.31z"/>
				</g>
			</g>
			<g>
				<g>
					<path class="st4" d="M347.95,379.21c0.25-0.04,0.47-0.26,0.66-0.42c0.22-0.19,0.42-0.4,0.62-0.61c0.44-0.48,0.85-1,1.26-1.51
						c0.43-0.53,0.86-1.07,1.29-1.6c0.21-0.26,0.42-0.52,0.63-0.78c0.19-0.24,0.47-0.48,0.46-0.81c0-0.12-0.1-0.18-0.21-0.16
						c-0.3,0.06-0.46,0.35-0.64,0.58c-0.21,0.26-0.41,0.52-0.62,0.79c-0.42,0.54-0.85,1.08-1.27,1.62
						c-0.39,0.49-0.76,0.99-1.15,1.48c-0.18,0.23-0.37,0.45-0.57,0.67c-0.18,0.2-0.45,0.39-0.56,0.64
						C347.82,379.16,347.87,379.23,347.95,379.21L347.95,379.21z"/>
				</g>
			</g>
			<g>
				<g>
					<path class="st4" d="M358.06,377.36c-0.15-0.39-0.48-0.62-0.8-0.87c-0.38-0.3-0.81-0.53-1.22-0.8
						c-0.43-0.28-0.84-0.59-1.25-0.91c-0.19-0.15-0.39-0.31-0.57-0.47c-0.21-0.18-0.39-0.37-0.63-0.5c-0.2-0.1-0.45,0.11-0.32,0.32
						c0.26,0.41,0.73,0.71,1.11,1c0.4,0.31,0.82,0.59,1.25,0.86c0.4,0.25,0.82,0.47,1.24,0.69c0.41,0.21,0.77,0.46,1.15,0.71
						C358.05,377.4,358.07,377.38,358.06,377.36L358.06,377.36z"/>
				</g>
			</g>
			<g>
				<g>
					<path class="st4" d="M339.34,362.64c0.58,0.13,1.26,0.02,1.86-0.02c0.61-0.05,1.22-0.1,1.83-0.16c0.61-0.06,1.22-0.13,1.82-0.2
						c0.32-0.04,0.65-0.09,0.97-0.12c0.3-0.03,0.61-0.04,0.9-0.12c0.22-0.06,0.18-0.41-0.06-0.41c-0.3,0-0.6,0.09-0.9,0.14
						c-0.3,0.05-0.61,0.09-0.92,0.13c-0.63,0.08-1.25,0.15-1.88,0.21c-0.61,0.06-1.22,0.11-1.83,0.16
						c-0.58,0.04-1.24,0.02-1.79,0.21C339.26,362.48,339.24,362.62,339.34,362.64L339.34,362.64z"/>
				</g>
			</g>
			<g>
				<g>
					<path class="st4" d="M344.81,353.5c-0.24,0.59-0.24,1.22-0.2,1.84c0.04,0.64,0.14,1.26,0.26,1.89
						c0.12,0.63,0.25,1.26,0.37,1.88c0.06,0.32,0.12,0.65,0.16,0.97c0.04,0.31,0.07,0.65,0.23,0.93c0.07,0.13,0.24,0.08,0.29-0.04
						c0.19-0.53-0.03-1.24-0.13-1.78c-0.12-0.65-0.27-1.29-0.4-1.94c-0.13-0.64-0.24-1.28-0.32-1.93c-0.07-0.61-0.06-1.23-0.14-1.84
						C344.92,353.43,344.83,353.45,344.81,353.5L344.81,353.5z"/>
				</g>
			</g>
		</g>
		<g>
			<g>
				<g>
					<path class="st4" d="M223.14,466.4c-0.14,0.8-0.17,1.61-0.21,2.42c-0.05,0.87-0.07,1.75-0.1,2.62
						c-0.06,1.94-0.11,3.88-0.14,5.83c-0.06,4.28-0.06,8.56-0.07,12.85c0,4.29,0.06,8.58,0.13,12.87c0.05,3.54,0.11,7.09,0.17,10.63
						c0.02,1.29,0.05,2.58,0.08,3.87c0.01,0.49,0.02,0.97,0.03,1.46c0.01,0.37-0.05,0.84,0.09,1.18c0.06,0.16,0.12,0.37,0.24,0.49
						c-0.03-0.08-0.07-0.17-0.1-0.25c0,0.14,0.03,0.29,0.05,0.43c0,0.02,0,0.04,0.01,0.06c0,0.01,0,0.02,0,0.02
						c0,0.03,0.01,0.06,0.01,0.09c0.03,0.16,0.04-0.04-0.01-0.07c0,0,0,0.03,0,0.04c0.01,0.38,0.61,0.38,0.6,0
						c0-0.01-0.01-0.03,0-0.04c0,0-0.05,0.22-0.02,0.1c0.01-0.04,0.02-0.08,0.03-0.12c0-0.01,0-0.02,0-0.02c0-0.02,0-0.04,0-0.07
						c0.01-0.14,0.03-0.29,0.03-0.43c-0.03,0.08-0.07,0.17-0.1,0.25c0.25-0.28,0.28-0.75,0.27-1.1c-0.01-0.43-0.03-0.85-0.04-1.28
						c-0.04-1.19-0.07-2.38-0.11-3.57c-0.1-3.41-0.19-6.81-0.26-10.22c-0.09-4.21-0.16-8.42-0.21-12.63c-0.05-4.33-0.11-8.66-0.1-13
						c0.01-3.74,0.05-7.47,0.12-11.21c0.01-0.38,0-0.76-0.03-1.14C223.49,466.26,223.18,466.18,223.14,466.4L223.14,466.4z"/>
				</g>
			</g>
			<g>
				<g>
					<path class="st4" d="M248.88,475.75c-0.75,0.42-1.41,0.95-2.12,1.44c-0.75,0.51-1.47,1.06-2.21,1.59
						c-1.52,1.09-3.05,2.17-4.58,3.25c-3.27,2.31-6.57,4.58-9.88,6.84c-3.42,2.33-6.86,4.64-10.31,6.93
						c-3.36,2.24-6.73,4.45-10.11,6.66c-1.59,1.03-3.18,2.07-4.77,3.09c-0.76,0.49-1.52,0.98-2.29,1.47
						c-0.73,0.47-1.5,0.92-2.2,1.43c-0.35,0.26-0.67,0.56-0.99,0.85c-0.22,0.21,0.01,0.67,0.31,0.54c0.4-0.17,0.81-0.32,1.18-0.53
						c0.38-0.21,0.75-0.46,1.12-0.7c0.75-0.48,1.5-0.97,2.24-1.46c1.58-1.03,3.16-2.06,4.74-3.1c3.35-2.2,6.69-4.42,10.02-6.65
						c3.44-2.31,6.86-4.64,10.27-7c3.32-2.3,6.62-4.62,9.9-6.98c2.99-2.16,5.96-4.35,8.86-6.62c0.34-0.27,0.66-0.54,0.97-0.85
						C249.14,475.85,249.01,475.68,248.88,475.75L248.88,475.75z"/>
				</g>
			</g>
			<g>
				<g>
					<path class="st4" d="M200.22,478.72c0.64,0.7,1.36,1.31,2.09,1.92c0.72,0.61,1.47,1.2,2.22,1.79c1.49,1.17,3.01,2.29,4.56,3.38
						c3.12,2.2,6.34,4.27,9.65,6.19c3.29,1.91,6.66,3.67,10.1,5.29c3.54,1.66,7.16,3.13,10.74,4.68c3.57,1.55,7.12,3.17,10.47,5.15
						c0.21,0.13,0.42,0.27,0.64,0.38c0.22,0.11,0.46,0.18,0.69,0.26c0.37,0.13,0.63-0.38,0.37-0.64c-0.16-0.16-0.32-0.34-0.5-0.47
						c-0.22-0.15-0.46-0.28-0.69-0.41c-0.41-0.24-0.82-0.48-1.24-0.71c-0.85-0.47-1.71-0.92-2.58-1.36
						c-1.74-0.87-3.51-1.68-5.29-2.46c-3.58-1.56-7.21-2.98-10.78-4.57c-3.47-1.55-6.88-3.25-10.2-5.1
						c-3.32-1.85-6.57-3.84-9.72-5.96c-3.15-2.13-6.19-4.4-9.2-6.72c-0.38-0.29-0.77-0.57-1.18-0.82
						C200.25,478.46,200.13,478.62,200.22,478.72L200.22,478.72z"/>
				</g>
			</g>
			<g>
				<g>
					<path class="st4" d="M230.45,468.18c-1.22,1.27-2.34,2.63-3.48,3.98c-0.55,0.66-1.11,1.32-1.66,1.98
						c-0.56,0.67-1.2,1.31-1.68,2.04c-0.17,0.26,0.21,0.54,0.42,0.33c0.62-0.61,1.13-1.36,1.67-2.04c0.55-0.69,1.11-1.38,1.66-2.07
						c1.09-1.36,2.18-2.7,3.18-4.13C230.62,468.21,230.51,468.12,230.45,468.18L230.45,468.18z"/>
				</g>
			</g>
			<g>
				<g>
					<path class="st4" d="M215.17,467.86c1.07,1.67,2.59,2.96,4.1,4.21c0.77,0.63,1.54,1.26,2.29,1.9c0.37,0.32,0.74,0.64,1.1,0.96
						c0.37,0.34,0.72,0.76,1.13,1.04c0.26,0.18,0.61-0.18,0.43-0.43c-0.27-0.4-0.7-0.73-1.06-1.05c-0.38-0.34-0.76-0.66-1.15-0.98
						c-0.76-0.62-1.54-1.21-2.31-1.81c-1.56-1.22-3.07-2.5-4.48-3.89C215.2,467.78,215.14,467.82,215.17,467.86L215.17,467.86z"/>
				</g>
			</g>
			<g>
				<g>
					<path class="st4" d="M243.83,471.9c-0.63,0.46-0.98,1.3-1.28,1.99c-0.33,0.78-0.59,1.59-0.85,2.39c-0.6,1.87-1.2,3.74-1.85,5.6
						c-0.12,0.36,0.46,0.52,0.57,0.16c0.51-1.83,1.08-3.65,1.64-5.46c0.25-0.8,0.49-1.6,0.79-2.38c0.15-0.4,0.34-0.79,0.52-1.17
						c0.17-0.35,0.38-0.7,0.51-1.07C243.91,471.91,243.86,471.87,243.83,471.9L243.83,471.9z"/>
				</g>
			</g>
			<g>
				<g>
					<path class="st4" d="M249.99,483.98c-2.86-0.68-5.83-0.91-8.46-2.34c-0.37-0.2-0.7,0.37-0.33,0.56c2.66,1.4,5.8,1.9,8.78,1.87
						C250.03,484.08,250.05,484,249.99,483.98L249.99,483.98z"/>
				</g>
			</g>
			<g>
				<g>
					<path class="st4" d="M253.57,499.89c-0.37-0.11-0.83-0.01-1.21,0.03c-0.42,0.04-0.83,0.11-1.25,0.18
						c-0.9,0.15-1.78,0.35-2.66,0.56c-1.75,0.43-3.47,0.93-5.2,1.42c-0.41,0.12-0.24,0.77,0.18,0.64c1.7-0.5,3.4-1.02,5.12-1.49
						c0.85-0.23,1.71-0.45,2.57-0.66c0.41-0.1,0.82-0.18,1.23-0.27c0.39-0.09,0.88-0.12,1.23-0.33
						C253.62,499.95,253.61,499.9,253.57,499.89L253.57,499.89z"/>
				</g>
			</g>
			<g>
				<g>
					<path class="st4" d="M245.2,513.24c0.02-0.86-0.19-1.72-0.33-2.56c-0.15-0.89-0.27-1.79-0.37-2.68
						c-0.1-0.88-0.18-1.77-0.23-2.65c-0.03-0.42-0.05-0.85-0.06-1.27c-0.02-0.45,0.02-0.93-0.07-1.37c-0.07-0.33-0.64-0.35-0.69,0
						c-0.07,0.44,0,0.92,0.03,1.37c0.03,0.44,0.06,0.89,0.1,1.33c0.08,0.89,0.18,1.79,0.31,2.68c0.12,0.88,0.28,1.75,0.46,2.62
						c0.18,0.87,0.33,1.78,0.75,2.57C245.12,513.32,245.2,513.3,245.2,513.24L245.2,513.24z"/>
				</g>
			</g>
			<g>
				<g>
					<path class="st4" d="M231.51,518.45c-1.16-1.24-2.39-2.4-3.57-3.61c-1.18-1.22-2.35-2.45-3.5-3.7
						c-0.26-0.28-0.69,0.14-0.43,0.43c1.18,1.25,2.35,2.51,3.58,3.71c1.2,1.17,2.45,2.34,3.88,3.24
						C231.5,518.54,231.54,518.48,231.51,518.45L231.51,518.45z"/>
				</g>
			</g>
			<g>
				<g>
					<path class="st4" d="M215.95,518.85c0.8-0.44,1.44-1.18,2.09-1.81c0.7-0.67,1.39-1.36,2.08-2.05c0.62-0.61,1.22-1.25,1.87-1.83
						c0.3-0.27,0.61-0.53,0.95-0.76c0.33-0.22,0.75-0.36,1.05-0.62c0.2-0.17,0.05-0.58-0.23-0.55c-0.39,0.04-0.77,0.29-1.09,0.51
						c-0.34,0.23-0.67,0.48-0.97,0.76c-0.67,0.59-1.29,1.25-1.91,1.89c-0.7,0.71-1.4,1.41-2.08,2.14c-0.65,0.68-1.43,1.36-1.88,2.2
						C215.77,518.8,215.87,518.89,215.95,518.85L215.95,518.85z"/>
				</g>
			</g>
			<g>
				<g>
					<path class="st4" d="M208.65,513.8c0.34-0.81,0.5-1.68,0.66-2.54c0.17-0.9,0.33-1.79,0.49-2.69c0.17-0.9,0.34-1.79,0.53-2.69
						c0.09-0.44,0.19-0.87,0.28-1.31c0.05-0.24,0.11-0.48,0.14-0.72c0.04-0.26,0.01-0.37-0.17-0.56c-0.03-0.03-0.09-0.05-0.14-0.04
						c-0.22,0.08-0.32,0.17-0.39,0.4c-0.07,0.21-0.1,0.44-0.15,0.65c-0.09,0.44-0.18,0.88-0.26,1.32c-0.17,0.9-0.33,1.8-0.48,2.7
						c-0.14,0.87-0.28,1.74-0.38,2.61c-0.05,0.44-0.1,0.88-0.13,1.33c-0.04,0.5-0.01,0.98-0.17,1.46
						C208.44,513.82,208.61,513.9,208.65,513.8L208.65,513.8z"/>
				</g>
			</g>
			<g>
				<g>
					<path class="st4" d="M200.39,499.56c0.89,0.13,1.76,0.35,2.64,0.52c0.87,0.16,1.73,0.35,2.57,0.62
						c0.84,0.27,1.65,0.62,2.44,0.99c0.84,0.39,1.69,0.75,2.5,1.19c0.46,0.25,0.79-0.48,0.28-0.68c-1.71-0.66-3.3-1.6-5.07-2.12
						c-0.87-0.25-1.75-0.43-2.64-0.56c-0.9-0.13-1.8-0.13-2.7-0.22C200.28,499.29,200.25,499.53,200.39,499.56L200.39,499.56z"/>
				</g>
			</g>
			<g>
				<g>
					<path class="st4" d="M208.25,476c-0.01,0.19-0.07,0.37-0.1,0.56c-0.02,0.18-0.01,0.37-0.01,0.56c0,0.35,0,0.7,0.01,1.05
						c0.03,0.74,0.05,1.48,0.07,2.22c0.02,0.72,0.03,1.44,0.04,2.16c0.01,0.73-0.04,1.5,0.03,2.23c0.05,0.44,0.68,0.46,0.7,0
						c0.04-0.73-0.05-1.49-0.09-2.23c-0.04-0.74-0.08-1.48-0.13-2.23c-0.05-0.72-0.09-1.44-0.14-2.16
						c-0.03-0.36-0.06-0.72-0.11-1.08c-0.02-0.17-0.04-0.34-0.07-0.51c-0.04-0.2-0.14-0.38-0.17-0.58
						C208.28,475.98,208.25,475.98,208.25,476L208.25,476z"/>
				</g>
			</g>
			<g>
				<g>
					<path class="st4" d="M200.12,486.14c1.4,0.22,2.83,0.11,4.24,0.09c0.7-0.01,1.41-0.03,2.11-0.04c0.74-0.02,1.5-0.07,2.24-0.03
						c0.4,0.02,0.39-0.66,0-0.62c-0.72,0.08-1.45,0.06-2.18,0.09c-0.73,0.02-1.45,0.05-2.18,0.07c-1.42,0.05-2.85,0.02-4.24,0.31
						C200.06,486.03,200.06,486.13,200.12,486.14L200.12,486.14z"/>
				</g>
			</g>
			<g>
				<g>
					<path class="st4" d="M243.6,488.84c-0.84-0.2-1.68-0.36-2.52-0.53c-0.82-0.17-1.64-0.35-2.47-0.46
						c-0.8-0.11-1.61-0.11-2.41-0.13c-0.41-0.01-0.82-0.03-1.22-0.08c-0.38-0.04-0.81-0.23-1.19-0.17c-0.13,0.02-0.18,0.22-0.08,0.3
						c0.28,0.22,0.69,0.23,1.03,0.27c0.4,0.05,0.81,0.06,1.22,0.06c0.84,0,1.68-0.04,2.51,0.04c1.72,0.16,3.41,0.53,5.12,0.75
						C243.62,488.88,243.62,488.84,243.6,488.84L243.6,488.84z"/>
				</g>
			</g>
			<g>
				<g>
					<path class="st4" d="M236,477.87c-0.84,1.37-1.3,2.92-1.78,4.44c-0.24,0.78-0.48,1.55-0.76,2.32
						c-0.14,0.38-0.28,0.75-0.44,1.13c-0.16,0.36-0.4,0.73-0.49,1.12c-0.05,0.21,0.23,0.41,0.38,0.22c0.23-0.28,0.35-0.66,0.49-1
						c0.15-0.37,0.29-0.75,0.43-1.14c0.27-0.79,0.51-1.58,0.74-2.38c0.46-1.57,0.95-3.13,1.53-4.66
						C236.13,477.85,236.03,477.81,236,477.87L236,477.87z"/>
				</g>
			</g>
			<g>
				<g>
					<path class="st4" d="M228.19,478.19c-1,0.95-1.97,1.93-2.9,2.96c-0.45,0.5-0.9,1-1.34,1.5c-0.24,0.27-0.47,0.53-0.71,0.8
						c-0.22,0.25-0.47,0.49-0.65,0.77c-0.14,0.22,0.16,0.41,0.34,0.26c0.25-0.21,0.45-0.5,0.67-0.75c0.22-0.25,0.44-0.51,0.66-0.76
						c0.45-0.52,0.9-1.05,1.36-1.57c0.9-1.03,1.78-2.07,2.66-3.11C228.34,478.22,228.25,478.13,228.19,478.19L228.19,478.19z"/>
				</g>
			</g>
			<g>
				<g>
					<path class="st4" d="M216.41,478.16c0.97,1.2,2.01,2.36,3.14,3.42c0.51,0.48,1.06,0.9,1.64,1.29c0.29,0.2,0.59,0.39,0.89,0.57
						c0.29,0.18,0.6,0.45,0.93,0.53c0.24,0.06,0.41-0.23,0.24-0.41c-0.22-0.24-0.58-0.37-0.86-0.53c-0.29-0.17-0.58-0.34-0.86-0.52
						c-0.62-0.4-1.21-0.84-1.74-1.34c-0.54-0.5-1.05-1.04-1.57-1.56c-0.55-0.55-1.12-1.05-1.71-1.56
						C216.44,477.99,216.34,478.08,216.41,478.16L216.41,478.16z"/>
				</g>
			</g>
			<g>
				<g>
					<path class="st4" d="M241.78,494.54c-1.25,0.38-2.48,0.87-3.7,1.36c-0.59,0.24-1.17,0.47-1.75,0.72
						c-0.3,0.13-0.6,0.26-0.9,0.39c-0.29,0.13-0.64,0.22-0.87,0.45c-0.15,0.15-0.05,0.46,0.18,0.44c0.29-0.02,0.55-0.18,0.82-0.3
						c0.3-0.14,0.59-0.27,0.89-0.41c0.61-0.28,1.21-0.57,1.82-0.85c1.19-0.56,2.39-1.1,3.54-1.73
						C241.84,494.59,241.82,494.52,241.78,494.54L241.78,494.54z"/>
				</g>
			</g>
			<g>
				<g>
					<path class="st4" d="M235.85,506.7c-0.08-1.36-0.25-2.71-0.45-4.07c-0.1-0.68-0.19-1.36-0.29-2.03
						c-0.05-0.33-0.1-0.65-0.15-0.98c-0.05-0.33-0.06-0.73-0.23-1.03c-0.1-0.17-0.39-0.15-0.44,0.06c-0.07,0.31,0.02,0.63,0.07,0.94
						c0.05,0.33,0.1,0.66,0.15,0.98c0.11,0.7,0.22,1.39,0.34,2.08c0.23,1.37,0.47,2.72,0.81,4.07
						C235.68,506.83,235.86,506.81,235.85,506.7L235.85,506.7z"/>
				</g>
			</g>
			<g>
				<g>
					<path class="st4" d="M214.67,505.93c0.07-0.27,0.19-0.53,0.26-0.8c0.08-0.27,0.13-0.55,0.19-0.83
						c0.12-0.55,0.23-1.11,0.34-1.66c0.11-0.56,0.24-1.11,0.36-1.66c0.1-0.42,0.36-1.03,0.16-1.45c-0.03-0.06-0.14-0.1-0.2-0.05
						c-0.37,0.28-0.41,0.93-0.51,1.35c-0.13,0.57-0.25,1.15-0.36,1.73c-0.11,0.56-0.2,1.12-0.28,1.68
						c-0.04,0.26-0.07,0.52-0.09,0.78c-0.02,0.3,0.02,0.6,0,0.9C214.56,505.98,214.66,505.99,214.67,505.93L214.67,505.93z"/>
				</g>
			</g>
			<g>
				<g>
					<path class="st4" d="M208.56,495.52c0.18,0.15,0.47,0.19,0.7,0.25c0.27,0.07,0.55,0.14,0.81,0.24
						c0.58,0.21,1.13,0.49,1.66,0.81c0.52,0.32,1.01,0.67,1.48,1.06c0.48,0.38,0.9,0.83,1.38,1.21c0.24,0.19,0.55-0.1,0.35-0.35
						c-0.41-0.48-0.95-0.9-1.45-1.29c-0.5-0.39-1.01-0.76-1.56-1.07c-0.52-0.3-1.07-0.56-1.65-0.75c-0.3-0.1-0.6-0.19-0.91-0.25
						c-0.25-0.04-0.56-0.1-0.79,0.02C208.53,495.41,208.52,495.49,208.56,495.52L208.56,495.52z"/>
				</g>
			</g>
			<g>
				<g>
					<path class="st4" d="M217.59,508.42c0.25-0.04,0.47-0.26,0.66-0.42c0.22-0.19,0.42-0.4,0.62-0.61c0.44-0.48,0.85-1,1.26-1.51
						c0.43-0.53,0.86-1.07,1.29-1.6c0.21-0.26,0.42-0.52,0.63-0.78c0.19-0.24,0.47-0.48,0.46-0.81c0-0.12-0.1-0.18-0.21-0.16
						c-0.3,0.06-0.46,0.35-0.64,0.58c-0.21,0.26-0.41,0.52-0.62,0.79c-0.42,0.54-0.85,1.08-1.27,1.62
						c-0.39,0.49-0.76,0.99-1.15,1.48c-0.18,0.23-0.37,0.45-0.57,0.67c-0.18,0.2-0.45,0.39-0.56,0.64
						C217.46,508.36,217.51,508.43,217.59,508.42L217.59,508.42z"/>
				</g>
			</g>
			<g>
				<g>
					<path class="st4" d="M227.71,506.56c-0.15-0.39-0.48-0.62-0.8-0.87c-0.38-0.3-0.81-0.53-1.22-0.8
						c-0.43-0.28-0.84-0.59-1.25-0.91c-0.19-0.15-0.39-0.31-0.57-0.47c-0.2-0.18-0.39-0.37-0.63-0.5c-0.2-0.1-0.45,0.11-0.32,0.32
						c0.26,0.41,0.73,0.71,1.11,1c0.4,0.31,0.82,0.59,1.25,0.86c0.4,0.25,0.82,0.47,1.24,0.69c0.41,0.21,0.77,0.46,1.15,0.71
						C227.69,506.6,227.72,506.58,227.71,506.56L227.71,506.56z"/>
				</g>
			</g>
			<g>
				<g>
					<path class="st4" d="M208.99,491.84c0.58,0.13,1.26,0.02,1.86-0.02c0.61-0.05,1.22-0.1,1.83-0.16c0.61-0.06,1.22-0.13,1.82-0.2
						c0.32-0.04,0.65-0.09,0.97-0.12c0.3-0.03,0.61-0.04,0.9-0.12c0.22-0.06,0.18-0.41-0.06-0.41c-0.3,0-0.6,0.09-0.9,0.14
						c-0.3,0.05-0.61,0.09-0.92,0.13c-0.63,0.08-1.25,0.15-1.88,0.21c-0.61,0.06-1.22,0.11-1.83,0.16
						c-0.58,0.04-1.24,0.02-1.79,0.21C208.9,491.68,208.89,491.82,208.99,491.84L208.99,491.84z"/>
				</g>
			</g>
			<g>
				<g>
					<path class="st4" d="M214.45,482.71c-0.24,0.59-0.24,1.22-0.2,1.84c0.04,0.64,0.14,1.26,0.26,1.89
						c0.12,0.63,0.25,1.26,0.37,1.88c0.06,0.32,0.12,0.65,0.16,0.97c0.04,0.31,0.07,0.65,0.23,0.93c0.07,0.13,0.24,0.08,0.29-0.04
						c0.19-0.53-0.03-1.24-0.13-1.78c-0.12-0.65-0.27-1.29-0.4-1.94c-0.13-0.64-0.24-1.28-0.32-1.93c-0.07-0.61-0.06-1.23-0.14-1.84
						C214.57,482.63,214.47,482.66,214.45,482.71L214.45,482.71z"/>
				</g>
			</g>
		</g>
		<g>
			<g>
				<g>
					<path class="st4" d="M398.72,603.32c-0.14,0.8-0.17,1.61-0.21,2.42c-0.05,0.87-0.07,1.75-0.1,2.62
						c-0.06,1.94-0.11,3.88-0.14,5.83c-0.06,4.28-0.06,8.56-0.07,12.85c0,4.29,0.06,8.58,0.13,12.87c0.05,3.54,0.11,7.09,0.17,10.63
						c0.02,1.29,0.05,2.58,0.08,3.87c0.01,0.49,0.02,0.97,0.03,1.46c0.01,0.37-0.05,0.84,0.09,1.18c0.06,0.16,0.12,0.37,0.24,0.49
						c-0.03-0.08-0.07-0.17-0.1-0.25c0,0.14,0.03,0.29,0.05,0.43c0,0.02,0,0.04,0.01,0.06c0,0.01,0,0.02,0,0.02
						c0,0.03,0.01,0.06,0.01,0.09c0.03,0.16,0.04-0.04-0.01-0.07c0,0,0,0.03,0,0.04c0.01,0.38,0.61,0.38,0.6,0
						c0-0.01-0.01-0.03,0-0.04c0,0-0.05,0.22-0.02,0.1c0.01-0.04,0.02-0.08,0.03-0.12c0-0.01,0-0.02,0-0.02c0-0.02,0-0.04,0-0.07
						c0.01-0.14,0.03-0.29,0.03-0.43c-0.03,0.08-0.07,0.17-0.1,0.25c0.25-0.28,0.28-0.75,0.27-1.1c-0.01-0.43-0.03-0.85-0.04-1.28
						c-0.04-1.19-0.07-2.38-0.11-3.57c-0.1-3.41-0.19-6.81-0.26-10.22c-0.09-4.21-0.16-8.42-0.21-12.63c-0.05-4.33-0.11-8.66-0.1-13
						c0.01-3.74,0.05-7.47,0.12-11.21c0.01-0.38,0-0.76-0.03-1.14C399.07,603.18,398.76,603.1,398.72,603.32L398.72,603.32z"/>
				</g>
			</g>
			<g>
				<g>
					<path class="st4" d="M424.47,612.67c-0.75,0.42-1.41,0.95-2.12,1.44c-0.75,0.51-1.47,1.06-2.21,1.59
						c-1.52,1.09-3.05,2.17-4.58,3.25c-3.27,2.31-6.57,4.58-9.88,6.84c-3.42,2.33-6.86,4.64-10.31,6.93
						c-3.36,2.24-6.73,4.45-10.11,6.66c-1.59,1.03-3.18,2.07-4.77,3.09c-0.76,0.49-1.52,0.98-2.29,1.47
						c-0.73,0.47-1.49,0.92-2.2,1.43c-0.35,0.26-0.67,0.56-0.99,0.85c-0.22,0.21,0.01,0.67,0.31,0.54c0.4-0.17,0.81-0.32,1.18-0.53
						c0.38-0.21,0.75-0.46,1.12-0.7c0.75-0.48,1.5-0.97,2.24-1.46c1.58-1.03,3.16-2.06,4.74-3.1c3.35-2.2,6.69-4.42,10.02-6.65
						c3.44-2.31,6.86-4.64,10.27-7c3.32-2.3,6.62-4.62,9.9-6.98c2.99-2.16,5.96-4.35,8.86-6.62c0.34-0.27,0.66-0.54,0.97-0.85
						C424.73,612.77,424.6,612.59,424.47,612.67L424.47,612.67z"/>
				</g>
			</g>
			<g>
				<g>
					<path class="st4" d="M375.81,615.64c0.64,0.7,1.36,1.31,2.09,1.92c0.72,0.61,1.47,1.2,2.22,1.79c1.49,1.17,3.01,2.29,4.56,3.38
						c3.12,2.2,6.34,4.27,9.65,6.19c3.29,1.91,6.66,3.67,10.1,5.29c3.54,1.66,7.16,3.13,10.74,4.68c3.57,1.55,7.12,3.17,10.47,5.15
						c0.21,0.13,0.42,0.27,0.64,0.38c0.22,0.11,0.46,0.18,0.69,0.26c0.37,0.13,0.63-0.38,0.37-0.64c-0.16-0.16-0.32-0.34-0.5-0.47
						c-0.22-0.15-0.46-0.28-0.69-0.41c-0.41-0.24-0.82-0.48-1.24-0.71c-0.85-0.47-1.71-0.92-2.58-1.36
						c-1.74-0.87-3.51-1.68-5.29-2.46c-3.58-1.56-7.21-2.98-10.78-4.58c-3.47-1.55-6.88-3.25-10.2-5.1
						c-3.32-1.85-6.57-3.84-9.72-5.96c-3.15-2.13-6.19-4.4-9.2-6.72c-0.38-0.29-0.77-0.57-1.18-0.82
						C375.83,615.38,375.72,615.54,375.81,615.64L375.81,615.64z"/>
				</g>
			</g>
			<g>
				<g>
					<path class="st4" d="M406.03,605.1c-1.22,1.27-2.34,2.63-3.48,3.98c-0.55,0.66-1.11,1.32-1.66,1.98
						c-0.56,0.67-1.2,1.31-1.68,2.04c-0.17,0.26,0.21,0.54,0.42,0.33c0.62-0.61,1.13-1.36,1.67-2.04c0.55-0.69,1.11-1.38,1.66-2.07
						c1.09-1.36,2.18-2.7,3.18-4.13C406.2,605.12,406.09,605.04,406.03,605.1L406.03,605.1z"/>
				</g>
			</g>
			<g>
				<g>
					<path class="st4" d="M390.75,604.78c1.07,1.67,2.59,2.96,4.1,4.21c0.77,0.63,1.54,1.26,2.29,1.9c0.37,0.32,0.74,0.64,1.1,0.96
						c0.37,0.34,0.72,0.76,1.13,1.04c0.26,0.18,0.61-0.18,0.43-0.43c-0.27-0.4-0.7-0.73-1.06-1.05c-0.38-0.34-0.76-0.66-1.15-0.98
						c-0.76-0.62-1.54-1.21-2.31-1.81c-1.56-1.22-3.07-2.5-4.48-3.89C390.78,604.7,390.73,604.74,390.75,604.78L390.75,604.78z"/>
				</g>
			</g>
			<g>
				<g>
					<path class="st4" d="M419.41,608.82c-0.63,0.46-0.98,1.3-1.28,1.99c-0.33,0.78-0.59,1.59-0.85,2.39
						c-0.6,1.87-1.2,3.74-1.85,5.6c-0.12,0.36,0.46,0.52,0.57,0.16c0.52-1.83,1.08-3.65,1.64-5.46c0.25-0.8,0.49-1.6,0.79-2.38
						c0.15-0.4,0.34-0.79,0.52-1.17c0.17-0.35,0.38-0.7,0.51-1.07C419.5,608.83,419.45,608.79,419.41,608.82L419.41,608.82z"/>
				</g>
			</g>
			<g>
				<g>
					<path class="st4" d="M425.57,620.9c-2.86-0.68-5.83-0.91-8.46-2.34c-0.37-0.2-0.7,0.37-0.33,0.56c2.66,1.4,5.8,1.9,8.78,1.87
						C425.62,621,425.63,620.91,425.57,620.9L425.57,620.9z"/>
				</g>
			</g>
			<g>
				<g>
					<path class="st4" d="M429.16,636.81c-0.37-0.11-0.83-0.01-1.21,0.03c-0.42,0.04-0.83,0.11-1.25,0.18
						c-0.9,0.15-1.78,0.35-2.66,0.56c-1.74,0.43-3.47,0.93-5.2,1.42c-0.41,0.12-0.24,0.77,0.18,0.64c1.7-0.5,3.4-1.02,5.12-1.49
						c0.85-0.23,1.71-0.45,2.57-0.66c0.41-0.1,0.82-0.18,1.23-0.27c0.39-0.09,0.88-0.12,1.23-0.33
						C429.21,636.87,429.2,636.82,429.16,636.81L429.16,636.81z"/>
				</g>
			</g>
			<g>
				<g>
					<path class="st4" d="M420.79,650.16c0.02-0.86-0.19-1.72-0.33-2.56c-0.15-0.89-0.27-1.79-0.37-2.68
						c-0.1-0.88-0.18-1.77-0.23-2.65c-0.03-0.42-0.05-0.85-0.06-1.27c-0.02-0.45,0.02-0.93-0.07-1.37c-0.07-0.33-0.64-0.35-0.69,0
						c-0.07,0.44,0,0.92,0.03,1.37c0.03,0.44,0.06,0.89,0.1,1.33c0.08,0.89,0.18,1.79,0.31,2.68c0.12,0.88,0.28,1.75,0.46,2.62
						c0.18,0.87,0.33,1.78,0.75,2.57C420.71,650.24,420.78,650.22,420.79,650.16L420.79,650.16z"/>
				</g>
			</g>
			<g>
				<g>
					<path class="st4" d="M407.09,655.37c-1.16-1.24-2.39-2.4-3.57-3.61c-1.18-1.22-2.35-2.45-3.5-3.7
						c-0.26-0.28-0.69,0.14-0.43,0.43c1.18,1.25,2.35,2.51,3.58,3.71c1.2,1.17,2.45,2.34,3.88,3.24
						C407.09,655.46,407.13,655.4,407.09,655.37L407.09,655.37z"/>
				</g>
			</g>
			<g>
				<g>
					<path class="st4" d="M391.54,655.77c0.8-0.44,1.44-1.19,2.09-1.81c0.7-0.67,1.39-1.36,2.08-2.05c0.62-0.61,1.22-1.25,1.87-1.83
						c0.3-0.27,0.61-0.53,0.95-0.76c0.33-0.22,0.75-0.36,1.05-0.62c0.2-0.17,0.05-0.58-0.23-0.55c-0.39,0.04-0.77,0.29-1.09,0.51
						c-0.34,0.23-0.67,0.48-0.97,0.76c-0.67,0.59-1.29,1.25-1.91,1.89c-0.7,0.71-1.4,1.41-2.08,2.14c-0.65,0.68-1.43,1.36-1.88,2.2
						C391.36,655.72,391.45,655.81,391.54,655.77L391.54,655.77z"/>
				</g>
			</g>
			<g>
				<g>
					<path class="st4" d="M384.24,650.72c0.34-0.81,0.5-1.68,0.66-2.54c0.17-0.9,0.33-1.79,0.49-2.69c0.17-0.9,0.34-1.79,0.53-2.69
						c0.09-0.44,0.19-0.87,0.28-1.31c0.05-0.24,0.11-0.48,0.14-0.72c0.04-0.26,0.01-0.37-0.17-0.56c-0.03-0.03-0.09-0.05-0.14-0.04
						c-0.22,0.08-0.32,0.17-0.39,0.4c-0.07,0.21-0.1,0.44-0.15,0.65c-0.09,0.44-0.18,0.88-0.26,1.32c-0.17,0.9-0.33,1.8-0.48,2.7
						c-0.14,0.87-0.28,1.74-0.38,2.61c-0.05,0.44-0.1,0.88-0.13,1.33c-0.04,0.5-0.01,0.98-0.17,1.46
						C384.03,650.74,384.19,650.82,384.24,650.72L384.24,650.72z"/>
				</g>
			</g>
			<g>
				<g>
					<path class="st4" d="M375.98,636.47c0.89,0.13,1.76,0.35,2.64,0.52c0.87,0.16,1.73,0.35,2.57,0.62
						c0.84,0.27,1.65,0.62,2.44,0.99c0.84,0.39,1.69,0.75,2.5,1.19c0.46,0.25,0.79-0.48,0.28-0.68c-1.71-0.66-3.3-1.6-5.07-2.12
						c-0.87-0.25-1.75-0.43-2.64-0.56c-0.9-0.13-1.8-0.13-2.7-0.22C375.87,636.21,375.83,636.45,375.98,636.47L375.98,636.47z"/>
				</g>
			</g>
			<g>
				<g>
					<path class="st4" d="M383.84,612.92c-0.01,0.19-0.07,0.37-0.1,0.56c-0.02,0.18-0.01,0.37-0.01,0.56c0,0.35,0,0.7,0.01,1.05
						c0.03,0.74,0.05,1.48,0.07,2.22c0.02,0.72,0.03,1.44,0.04,2.16c0.01,0.73-0.04,1.5,0.04,2.23c0.05,0.44,0.68,0.46,0.7,0
						c0.04-0.73-0.05-1.49-0.09-2.23c-0.04-0.74-0.08-1.48-0.13-2.23c-0.05-0.72-0.09-1.44-0.14-2.16
						c-0.03-0.36-0.06-0.72-0.11-1.08c-0.02-0.17-0.04-0.34-0.07-0.51c-0.04-0.2-0.14-0.38-0.17-0.58
						C383.86,612.89,383.84,612.9,383.84,612.92L383.84,612.92z"/>
				</g>
			</g>
			<g>
				<g>
					<path class="st4" d="M375.71,623.06c1.4,0.22,2.83,0.11,4.24,0.09c0.7-0.01,1.41-0.03,2.11-0.04c0.74-0.02,1.5-0.07,2.24-0.03
						c0.4,0.02,0.39-0.66,0-0.62c-0.72,0.08-1.45,0.06-2.18,0.09c-0.73,0.02-1.45,0.05-2.18,0.07c-1.42,0.05-2.85,0.02-4.24,0.31
						C375.65,622.95,375.64,623.05,375.71,623.06L375.71,623.06z"/>
				</g>
			</g>
			<g>
				<g>
					<path class="st4" d="M419.19,625.76c-0.84-0.19-1.68-0.36-2.52-0.53c-0.82-0.17-1.64-0.35-2.47-0.46
						c-0.8-0.11-1.61-0.11-2.41-0.13c-0.41-0.01-0.82-0.03-1.22-0.08c-0.38-0.04-0.81-0.23-1.19-0.17c-0.13,0.02-0.18,0.22-0.08,0.3
						c0.28,0.22,0.69,0.23,1.03,0.27c0.4,0.05,0.81,0.06,1.22,0.06c0.84,0,1.68-0.04,2.51,0.04c1.72,0.16,3.41,0.53,5.12,0.75
						C419.2,625.8,419.21,625.76,419.19,625.76L419.19,625.76z"/>
				</g>
			</g>
			<g>
				<g>
					<path class="st4" d="M411.58,614.79c-0.84,1.37-1.3,2.92-1.78,4.44c-0.24,0.78-0.48,1.55-0.76,2.32
						c-0.14,0.38-0.28,0.75-0.44,1.13c-0.16,0.36-0.4,0.73-0.49,1.12c-0.05,0.21,0.23,0.41,0.38,0.22c0.23-0.28,0.35-0.66,0.49-1
						c0.15-0.37,0.29-0.75,0.43-1.14c0.27-0.79,0.51-1.58,0.74-2.38c0.46-1.57,0.95-3.13,1.53-4.66
						C411.71,614.77,411.62,614.73,411.58,614.79L411.58,614.79z"/>
				</g>
			</g>
			<g>
				<g>
					<path class="st4" d="M403.77,615.11c-1,0.95-1.97,1.93-2.9,2.96c-0.45,0.5-0.9,1-1.34,1.5c-0.24,0.27-0.47,0.53-0.71,0.8
						c-0.22,0.25-0.47,0.49-0.65,0.77c-0.14,0.22,0.16,0.41,0.34,0.26c0.25-0.21,0.45-0.5,0.67-0.75c0.22-0.25,0.44-0.51,0.66-0.76
						c0.45-0.52,0.9-1.05,1.36-1.57c0.9-1.03,1.78-2.07,2.66-3.11C403.93,615.14,403.84,615.05,403.77,615.11L403.77,615.11z"/>
				</g>
			</g>
			<g>
				<g>
					<path class="st4" d="M391.99,615.08c0.97,1.2,2.01,2.36,3.14,3.42c0.51,0.48,1.06,0.9,1.64,1.29c0.29,0.2,0.59,0.39,0.89,0.57
						c0.29,0.18,0.6,0.45,0.93,0.53c0.24,0.06,0.41-0.23,0.24-0.41c-0.22-0.24-0.58-0.37-0.86-0.53c-0.29-0.17-0.58-0.34-0.86-0.52
						c-0.62-0.4-1.21-0.84-1.75-1.34c-0.54-0.5-1.05-1.04-1.57-1.56c-0.55-0.55-1.12-1.05-1.71-1.56
						C392.02,614.91,391.93,615,391.99,615.08L391.99,615.08z"/>
				</g>
			</g>
			<g>
				<g>
					<path class="st4" d="M417.36,631.46c-1.25,0.38-2.48,0.87-3.7,1.36c-0.59,0.24-1.17,0.47-1.75,0.72
						c-0.3,0.13-0.6,0.26-0.89,0.39c-0.29,0.13-0.64,0.22-0.87,0.45c-0.15,0.15-0.05,0.46,0.18,0.44c0.29-0.02,0.55-0.18,0.82-0.3
						c0.3-0.14,0.59-0.27,0.89-0.41c0.61-0.28,1.21-0.57,1.82-0.85c1.19-0.56,2.39-1.1,3.54-1.73
						C417.43,631.51,417.4,631.44,417.36,631.46L417.36,631.46z"/>
				</g>
			</g>
			<g>
				<g>
					<path class="st4" d="M411.43,643.62c-0.08-1.36-0.25-2.71-0.45-4.07c-0.1-0.68-0.19-1.36-0.29-2.03
						c-0.05-0.33-0.1-0.65-0.15-0.98c-0.05-0.33-0.06-0.73-0.23-1.03c-0.1-0.17-0.39-0.15-0.44,0.06c-0.07,0.31,0.02,0.63,0.07,0.94
						c0.05,0.33,0.1,0.66,0.15,0.98c0.11,0.7,0.22,1.39,0.34,2.08c0.23,1.37,0.47,2.72,0.81,4.07
						C411.26,643.75,411.44,643.73,411.43,643.62L411.43,643.62z"/>
				</g>
			</g>
			<g>
				<g>
					<path class="st4" d="M390.25,642.85c0.07-0.27,0.19-0.53,0.26-0.8c0.08-0.27,0.13-0.55,0.19-0.83
						c0.12-0.55,0.23-1.11,0.34-1.67c0.11-0.56,0.24-1.11,0.36-1.66c0.1-0.42,0.36-1.03,0.16-1.45c-0.03-0.06-0.14-0.1-0.2-0.05
						c-0.37,0.28-0.41,0.93-0.51,1.35c-0.13,0.57-0.25,1.15-0.36,1.73c-0.11,0.56-0.2,1.12-0.28,1.68
						c-0.04,0.26-0.07,0.52-0.09,0.78c-0.02,0.3,0.02,0.6,0,0.9C390.15,642.9,390.24,642.91,390.25,642.85L390.25,642.85z"/>
				</g>
			</g>
			<g>
				<g>
					<path class="st4" d="M384.15,632.44c0.18,0.15,0.47,0.19,0.7,0.25c0.27,0.07,0.55,0.14,0.81,0.24
						c0.58,0.21,1.13,0.49,1.66,0.81c0.52,0.32,1.01,0.67,1.48,1.06c0.48,0.38,0.9,0.83,1.38,1.21c0.24,0.19,0.55-0.1,0.35-0.35
						c-0.41-0.48-0.95-0.9-1.45-1.29c-0.5-0.39-1.01-0.76-1.56-1.07c-0.52-0.3-1.07-0.56-1.65-0.75c-0.3-0.1-0.6-0.19-0.91-0.25
						c-0.25-0.04-0.56-0.1-0.79,0.02C384.12,632.33,384.11,632.41,384.15,632.44L384.15,632.44z"/>
				</g>
			</g>
			<g>
				<g>
					<path class="st4" d="M393.18,645.34c0.25-0.04,0.47-0.26,0.66-0.42c0.22-0.19,0.42-0.4,0.62-0.61c0.44-0.48,0.85-1,1.26-1.51
						c0.43-0.53,0.86-1.07,1.29-1.6c0.21-0.26,0.42-0.52,0.63-0.78c0.19-0.24,0.47-0.48,0.46-0.81c0-0.12-0.1-0.18-0.21-0.16
						c-0.3,0.06-0.46,0.35-0.64,0.58c-0.21,0.26-0.41,0.52-0.62,0.79c-0.42,0.54-0.85,1.08-1.27,1.62
						c-0.39,0.49-0.76,0.99-1.15,1.48c-0.18,0.23-0.37,0.45-0.57,0.67c-0.18,0.2-0.45,0.39-0.56,0.64
						C393.05,645.28,393.1,645.35,393.18,645.34L393.18,645.34z"/>
				</g>
			</g>
			<g>
				<g>
					<path class="st4" d="M403.3,643.48c-0.15-0.39-0.48-0.62-0.8-0.87c-0.38-0.3-0.81-0.53-1.22-0.8
						c-0.43-0.28-0.84-0.59-1.25-0.91c-0.19-0.15-0.39-0.31-0.57-0.47c-0.2-0.18-0.39-0.37-0.63-0.5c-0.2-0.1-0.45,0.11-0.32,0.32
						c0.26,0.41,0.73,0.71,1.11,1c0.4,0.31,0.82,0.59,1.25,0.86c0.4,0.25,0.82,0.47,1.24,0.69c0.41,0.21,0.77,0.46,1.15,0.71
						C403.28,643.52,403.3,643.5,403.3,643.48L403.3,643.48z"/>
				</g>
			</g>
			<g>
				<g>
					<path class="st4" d="M384.57,628.76c0.58,0.13,1.26,0.02,1.86-0.02c0.61-0.05,1.22-0.1,1.83-0.16c0.61-0.06,1.22-0.13,1.82-0.2
						c0.32-0.04,0.65-0.09,0.97-0.12c0.3-0.03,0.61-0.04,0.9-0.12c0.22-0.06,0.18-0.41-0.06-0.41c-0.3,0-0.6,0.09-0.9,0.14
						c-0.3,0.05-0.61,0.09-0.92,0.13c-0.63,0.08-1.25,0.15-1.88,0.21c-0.61,0.06-1.22,0.11-1.83,0.16
						c-0.58,0.04-1.24,0.02-1.79,0.21C384.49,628.6,384.47,628.74,384.57,628.76L384.57,628.76z"/>
				</g>
			</g>
			<g>
				<g>
					<path class="st4" d="M390.04,619.62c-0.24,0.59-0.24,1.22-0.2,1.84c0.04,0.64,0.14,1.26,0.26,1.89
						c0.12,0.63,0.25,1.26,0.37,1.88c0.06,0.32,0.12,0.65,0.16,0.97c0.04,0.31,0.07,0.65,0.23,0.93c0.07,0.13,0.24,0.08,0.29-0.04
						c0.19-0.53-0.03-1.24-0.13-1.78c-0.12-0.65-0.27-1.29-0.4-1.94c-0.13-0.64-0.24-1.28-0.32-1.93c-0.07-0.61-0.05-1.23-0.14-1.84
						C390.15,619.55,390.06,619.57,390.04,619.62L390.04,619.62z"/>
				</g>
			</g>
		</g>
		<g>
			<g>
				<g>
					<path class="st4" d="M169.43,758.5c-0.14,0.8-0.17,1.61-0.21,2.42c-0.05,0.87-0.07,1.75-0.1,2.62
						c-0.06,1.94-0.11,3.88-0.14,5.83c-0.06,4.28-0.06,8.56-0.07,12.85c0,4.29,0.06,8.58,0.13,12.87c0.05,3.54,0.11,7.09,0.17,10.63
						c0.02,1.29,0.05,2.58,0.08,3.87c0.01,0.49,0.02,0.97,0.03,1.46c0.01,0.37-0.05,0.84,0.09,1.18c0.06,0.16,0.12,0.37,0.24,0.49
						c-0.03-0.08-0.07-0.17-0.1-0.25c0,0.14,0.03,0.29,0.05,0.43c0,0.02,0,0.04,0.01,0.06c0,0.01,0,0.02,0,0.02
						c0,0.03,0.01,0.06,0.01,0.09c0.03,0.16,0.04-0.04-0.01-0.07c0,0,0,0.03,0,0.04c0.01,0.38,0.61,0.38,0.6,0
						c0-0.01-0.01-0.03,0-0.04c0,0-0.05,0.22-0.02,0.1c0.01-0.04,0.02-0.08,0.03-0.12c0-0.01,0-0.02,0-0.02c0-0.02,0-0.04,0-0.07
						c0.01-0.14,0.03-0.29,0.03-0.43c-0.03,0.08-0.07,0.17-0.1,0.25c0.25-0.28,0.28-0.75,0.27-1.1c-0.01-0.43-0.03-0.85-0.04-1.28
						c-0.04-1.19-0.07-2.38-0.11-3.57c-0.1-3.41-0.19-6.81-0.26-10.22c-0.09-4.21-0.16-8.42-0.21-12.63c-0.05-4.33-0.11-8.66-0.1-13
						c0.01-3.74,0.05-7.47,0.12-11.21c0.01-0.38,0-0.76-0.03-1.14C169.78,758.36,169.47,758.28,169.43,758.5L169.43,758.5z"/>
				</g>
			</g>
			<g>
				<g>
					<path class="st4" d="M195.18,767.85c-0.75,0.42-1.41,0.95-2.12,1.44c-0.75,0.51-1.47,1.06-2.21,1.59
						c-1.52,1.09-3.05,2.17-4.58,3.25c-3.27,2.31-6.57,4.58-9.88,6.84c-3.42,2.33-6.86,4.64-10.31,6.93
						c-3.36,2.24-6.73,4.45-10.11,6.66c-1.59,1.03-3.18,2.07-4.77,3.09c-0.76,0.49-1.52,0.98-2.29,1.47
						c-0.73,0.47-1.5,0.92-2.2,1.43c-0.35,0.26-0.67,0.56-0.99,0.85c-0.22,0.21,0.01,0.67,0.31,0.54c0.4-0.17,0.81-0.32,1.18-0.53
						c0.38-0.21,0.75-0.46,1.12-0.7c0.75-0.48,1.5-0.97,2.24-1.46c1.58-1.03,3.16-2.06,4.74-3.1c3.35-2.2,6.69-4.42,10.02-6.65
						c3.44-2.31,6.86-4.64,10.27-7c3.32-2.3,6.62-4.62,9.9-6.98c2.99-2.16,5.96-4.35,8.86-6.62c0.34-0.27,0.66-0.54,0.97-0.85
						C195.44,767.95,195.3,767.78,195.18,767.85L195.18,767.85z"/>
				</g>
			</g>
			<g>
				<g>
					<path class="st4" d="M146.52,770.83c0.64,0.7,1.36,1.31,2.09,1.92c0.72,0.61,1.47,1.2,2.22,1.79c1.49,1.17,3.01,2.29,4.56,3.38
						c3.12,2.2,6.34,4.27,9.65,6.19c3.29,1.91,6.66,3.67,10.1,5.29c3.54,1.66,7.16,3.13,10.74,4.68c3.57,1.55,7.12,3.17,10.47,5.15
						c0.21,0.13,0.42,0.27,0.64,0.38c0.22,0.11,0.46,0.18,0.69,0.26c0.37,0.13,0.63-0.38,0.37-0.64c-0.16-0.16-0.32-0.34-0.5-0.47
						c-0.22-0.15-0.46-0.28-0.69-0.41c-0.41-0.24-0.82-0.48-1.24-0.71c-0.85-0.47-1.71-0.92-2.58-1.36
						c-1.74-0.87-3.51-1.68-5.29-2.46c-3.58-1.56-7.21-2.98-10.78-4.58c-3.47-1.55-6.88-3.25-10.2-5.1
						c-3.32-1.85-6.57-3.84-9.72-5.96c-3.15-2.13-6.19-4.4-9.2-6.72c-0.38-0.29-0.77-0.57-1.18-0.82
						C146.54,770.56,146.43,770.73,146.52,770.83L146.52,770.83z"/>
				</g>
			</g>
			<g>
				<g>
					<path class="st4" d="M176.74,760.29c-1.22,1.27-2.34,2.63-3.48,3.98c-0.55,0.66-1.11,1.32-1.66,1.98
						c-0.56,0.67-1.2,1.32-1.68,2.04c-0.17,0.26,0.21,0.54,0.42,0.33c0.62-0.61,1.13-1.36,1.67-2.04c0.55-0.69,1.11-1.38,1.66-2.07
						c1.09-1.36,2.18-2.7,3.18-4.13C176.91,760.31,176.8,760.23,176.74,760.29L176.74,760.29z"/>
				</g>
			</g>
			<g>
				<g>
					<path class="st4" d="M161.46,759.96c1.07,1.67,2.59,2.96,4.1,4.21c0.77,0.63,1.54,1.26,2.29,1.9c0.37,0.32,0.74,0.64,1.1,0.96
						c0.37,0.34,0.72,0.76,1.13,1.04c0.26,0.18,0.61-0.18,0.43-0.43c-0.27-0.4-0.7-0.73-1.06-1.05c-0.38-0.34-0.76-0.66-1.15-0.98
						c-0.76-0.62-1.54-1.21-2.31-1.81c-1.56-1.22-3.07-2.5-4.48-3.89C161.49,759.88,161.44,759.92,161.46,759.96L161.46,759.96z"/>
				</g>
			</g>
			<g>
				<g>
					<path class="st4" d="M190.12,764c-0.63,0.46-0.98,1.3-1.28,1.99c-0.33,0.78-0.59,1.59-0.85,2.39c-0.6,1.87-1.2,3.74-1.85,5.6
						c-0.12,0.36,0.46,0.52,0.57,0.16c0.51-1.83,1.08-3.65,1.64-5.46c0.25-0.8,0.49-1.6,0.79-2.38c0.15-0.4,0.34-0.79,0.52-1.17
						c0.17-0.35,0.38-0.7,0.51-1.07C190.2,764.01,190.16,763.97,190.12,764L190.12,764z"/>
				</g>
			</g>
			<g>
				<g>
					<path class="st4" d="M196.28,776.09c-2.86-0.68-5.83-0.91-8.46-2.34c-0.37-0.2-0.7,0.37-0.33,0.56c2.66,1.4,5.8,1.9,8.78,1.87
						C196.32,776.18,196.34,776.1,196.28,776.09L196.28,776.09z"/>
				</g>
			</g>
			<g>
				<g>
					<path class="st4" d="M199.87,791.99c-0.37-0.11-0.83-0.01-1.21,0.03c-0.42,0.04-0.83,0.11-1.25,0.18
						c-0.9,0.15-1.78,0.35-2.66,0.56c-1.74,0.43-3.47,0.93-5.2,1.42c-0.41,0.12-0.24,0.77,0.18,0.64c1.7-0.5,3.4-1.02,5.12-1.49
						c0.85-0.23,1.71-0.45,2.57-0.66c0.41-0.1,0.82-0.18,1.23-0.27c0.39-0.09,0.88-0.12,1.23-0.33
						C199.91,792.06,199.91,792,199.87,791.99L199.87,791.99z"/>
				</g>
			</g>
			<g>
				<g>
					<path class="st4" d="M191.5,805.34c0.02-0.86-0.19-1.72-0.33-2.56c-0.15-0.89-0.27-1.79-0.37-2.68
						c-0.1-0.88-0.18-1.77-0.23-2.65c-0.03-0.42-0.05-0.85-0.06-1.27c-0.02-0.45,0.02-0.93-0.07-1.37c-0.07-0.33-0.64-0.35-0.69,0
						c-0.07,0.44,0,0.92,0.03,1.37c0.03,0.44,0.06,0.89,0.1,1.33c0.08,0.89,0.18,1.79,0.31,2.68c0.12,0.88,0.28,1.75,0.46,2.62
						c0.18,0.87,0.33,1.78,0.75,2.57C191.42,805.42,191.49,805.4,191.5,805.34L191.5,805.34z"/>
				</g>
			</g>
			<g>
				<g>
					<path class="st4" d="M177.8,810.55c-1.16-1.24-2.39-2.4-3.57-3.61c-1.18-1.22-2.35-2.45-3.5-3.7
						c-0.26-0.28-0.69,0.14-0.43,0.43c1.18,1.25,2.35,2.51,3.58,3.71c1.2,1.17,2.45,2.34,3.88,3.24
						C177.79,810.64,177.84,810.58,177.8,810.55L177.8,810.55z"/>
				</g>
			</g>
			<g>
				<g>
					<path class="st4" d="M162.24,810.95c0.8-0.44,1.44-1.19,2.09-1.81c0.7-0.67,1.39-1.36,2.08-2.05c0.62-0.61,1.22-1.25,1.87-1.83
						c0.3-0.27,0.61-0.53,0.95-0.76c0.33-0.22,0.75-0.36,1.05-0.62c0.2-0.17,0.05-0.58-0.23-0.55c-0.39,0.04-0.77,0.29-1.09,0.51
						c-0.34,0.23-0.67,0.48-0.97,0.76c-0.67,0.59-1.29,1.25-1.91,1.89c-0.7,0.71-1.4,1.41-2.08,2.14c-0.65,0.68-1.43,1.36-1.88,2.2
						C162.07,810.9,162.16,811,162.24,810.95L162.24,810.95z"/>
				</g>
			</g>
			<g>
				<g>
					<path class="st4" d="M154.95,805.9c0.34-0.81,0.5-1.68,0.66-2.54c0.17-0.9,0.33-1.79,0.49-2.69c0.17-0.9,0.34-1.79,0.53-2.69
						c0.09-0.44,0.19-0.87,0.28-1.31c0.05-0.24,0.11-0.48,0.14-0.72c0.04-0.26,0.01-0.37-0.17-0.56c-0.03-0.03-0.09-0.05-0.14-0.04
						c-0.22,0.08-0.32,0.17-0.39,0.4c-0.07,0.21-0.1,0.44-0.15,0.65c-0.09,0.44-0.18,0.88-0.26,1.32c-0.17,0.9-0.33,1.8-0.48,2.7
						c-0.14,0.87-0.28,1.74-0.38,2.61c-0.05,0.44-0.1,0.88-0.13,1.33c-0.04,0.5-0.01,0.98-0.17,1.46
						C154.73,805.93,154.9,806,154.95,805.9L154.95,805.9z"/>
				</g>
			</g>
			<g>
				<g>
					<path class="st4" d="M146.68,791.66c0.89,0.13,1.76,0.35,2.64,0.52c0.87,0.16,1.73,0.35,2.57,0.62
						c0.84,0.27,1.65,0.62,2.44,0.99c0.84,0.39,1.69,0.75,2.5,1.2c0.46,0.25,0.79-0.48,0.28-0.68c-1.71-0.66-3.3-1.6-5.07-2.12
						c-0.87-0.25-1.75-0.43-2.64-0.56c-0.9-0.13-1.8-0.13-2.7-0.22C146.58,791.39,146.54,791.64,146.68,791.66L146.68,791.66z"/>
				</g>
			</g>
			<g>
				<g>
					<path class="st4" d="M154.54,768.1c-0.01,0.19-0.07,0.37-0.1,0.56c-0.02,0.18-0.01,0.37-0.01,0.56c0,0.35,0,0.7,0.01,1.05
						c0.03,0.74,0.05,1.48,0.07,2.22c0.02,0.72,0.03,1.44,0.04,2.16c0.01,0.73-0.04,1.5,0.04,2.23c0.05,0.44,0.68,0.46,0.7,0
						c0.04-0.73-0.05-1.49-0.09-2.23c-0.04-0.74-0.08-1.48-0.13-2.23c-0.05-0.72-0.09-1.44-0.14-2.16
						c-0.03-0.36-0.06-0.72-0.11-1.08c-0.02-0.17-0.04-0.34-0.07-0.51c-0.04-0.2-0.14-0.38-0.17-0.58
						C154.57,768.08,154.55,768.08,154.54,768.1L154.54,768.1z"/>
				</g>
			</g>
			<g>
				<g>
					<path class="st4" d="M146.42,778.25c1.4,0.22,2.83,0.11,4.25,0.09c0.7-0.01,1.41-0.03,2.11-0.04c0.74-0.02,1.5-0.07,2.24-0.03
						c0.4,0.02,0.39-0.66,0-0.62c-0.72,0.08-1.45,0.06-2.18,0.09c-0.73,0.02-1.45,0.05-2.18,0.07c-1.42,0.05-2.85,0.02-4.25,0.31
						C146.36,778.13,146.35,778.24,146.42,778.25L146.42,778.25z"/>
				</g>
			</g>
			<g>
				<g>
					<path class="st4" d="M189.9,780.94c-0.84-0.19-1.68-0.36-2.52-0.53c-0.82-0.17-1.64-0.35-2.47-0.46
						c-0.8-0.11-1.61-0.11-2.41-0.13c-0.41-0.01-0.82-0.03-1.22-0.08c-0.38-0.04-0.81-0.23-1.19-0.17c-0.13,0.02-0.18,0.22-0.08,0.3
						c0.28,0.22,0.69,0.23,1.03,0.27c0.4,0.05,0.81,0.06,1.22,0.06c0.84,0,1.68-0.04,2.51,0.04c1.72,0.16,3.41,0.53,5.12,0.75
						C189.91,780.98,189.92,780.94,189.9,780.94L189.9,780.94z"/>
				</g>
			</g>
			<g>
				<g>
					<path class="st4" d="M182.29,769.97c-0.84,1.37-1.3,2.92-1.78,4.44c-0.24,0.78-0.48,1.55-0.76,2.32
						c-0.14,0.38-0.28,0.75-0.44,1.13c-0.16,0.36-0.4,0.73-0.49,1.12c-0.05,0.21,0.23,0.41,0.38,0.22c0.23-0.28,0.35-0.66,0.49-1
						c0.15-0.37,0.29-0.75,0.43-1.14c0.27-0.79,0.51-1.58,0.74-2.38c0.46-1.57,0.95-3.13,1.53-4.66
						C182.42,769.95,182.33,769.92,182.29,769.97L182.29,769.97z"/>
				</g>
			</g>
			<g>
				<g>
					<path class="st4" d="M174.48,770.3c-1,0.95-1.97,1.93-2.9,2.96c-0.45,0.5-0.9,1-1.34,1.5c-0.24,0.27-0.47,0.53-0.71,0.8
						c-0.22,0.25-0.47,0.49-0.65,0.77c-0.14,0.22,0.16,0.41,0.34,0.26c0.25-0.21,0.45-0.5,0.67-0.75c0.22-0.25,0.44-0.51,0.66-0.76
						c0.45-0.52,0.9-1.05,1.36-1.57c0.9-1.03,1.78-2.07,2.66-3.11C174.64,770.33,174.55,770.24,174.48,770.3L174.48,770.3z"/>
				</g>
			</g>
			<g>
				<g>
					<path class="st4" d="M162.7,770.26c0.97,1.2,2.01,2.36,3.14,3.42c0.51,0.48,1.06,0.9,1.64,1.29c0.29,0.2,0.59,0.39,0.89,0.57
						c0.29,0.18,0.6,0.45,0.93,0.53c0.24,0.06,0.41-0.23,0.24-0.41c-0.22-0.24-0.58-0.37-0.86-0.53c-0.29-0.17-0.58-0.34-0.86-0.52
						c-0.62-0.4-1.21-0.84-1.74-1.34c-0.54-0.5-1.05-1.04-1.57-1.56c-0.55-0.55-1.12-1.06-1.71-1.56
						C162.73,770.09,162.64,770.19,162.7,770.26L162.7,770.26z"/>
				</g>
			</g>
			<g>
				<g>
					<path class="st4" d="M188.07,786.64c-1.25,0.38-2.48,0.87-3.7,1.36c-0.59,0.24-1.17,0.47-1.75,0.72
						c-0.3,0.13-0.6,0.26-0.9,0.39c-0.29,0.13-0.64,0.22-0.87,0.45c-0.15,0.15-0.05,0.46,0.18,0.44c0.29-0.02,0.55-0.18,0.82-0.3
						c0.3-0.14,0.59-0.27,0.89-0.41c0.61-0.28,1.21-0.57,1.82-0.85c1.19-0.56,2.39-1.1,3.54-1.73
						C188.14,786.69,188.11,786.63,188.07,786.64L188.07,786.64z"/>
				</g>
			</g>
			<g>
				<g>
					<path class="st4" d="M182.14,798.8c-0.08-1.36-0.25-2.71-0.45-4.07c-0.1-0.68-0.19-1.36-0.29-2.03
						c-0.05-0.33-0.1-0.65-0.15-0.98c-0.05-0.33-0.06-0.73-0.23-1.03c-0.1-0.17-0.39-0.15-0.44,0.06c-0.07,0.31,0.02,0.63,0.07,0.94
						c0.05,0.33,0.1,0.66,0.15,0.98c0.11,0.7,0.22,1.39,0.34,2.08c0.23,1.37,0.47,2.72,0.81,4.07
						C181.97,798.94,182.15,798.92,182.14,798.8L182.14,798.8z"/>
				</g>
			</g>
			<g>
				<g>
					<path class="st4" d="M160.96,798.03c0.07-0.27,0.19-0.53,0.26-0.8c0.08-0.27,0.13-0.55,0.19-0.83
						c0.12-0.55,0.23-1.11,0.34-1.67c0.11-0.56,0.24-1.11,0.36-1.66c0.1-0.42,0.36-1.03,0.16-1.45c-0.03-0.06-0.14-0.1-0.2-0.05
						c-0.37,0.28-0.41,0.93-0.51,1.35c-0.13,0.57-0.25,1.15-0.36,1.73c-0.11,0.56-0.2,1.12-0.28,1.68
						c-0.04,0.26-0.07,0.52-0.09,0.78c-0.02,0.3,0.02,0.6,0,0.9C160.86,798.08,160.95,798.09,160.96,798.03L160.96,798.03z"/>
				</g>
			</g>
			<g>
				<g>
					<path class="st4" d="M154.86,787.62c0.18,0.15,0.47,0.19,0.7,0.25c0.27,0.07,0.55,0.14,0.81,0.24
						c0.58,0.21,1.13,0.49,1.66,0.81c0.52,0.32,1.01,0.67,1.48,1.06c0.48,0.38,0.9,0.83,1.38,1.21c0.24,0.19,0.55-0.1,0.35-0.35
						c-0.41-0.48-0.95-0.9-1.45-1.29c-0.5-0.39-1.01-0.76-1.56-1.07c-0.52-0.3-1.07-0.56-1.65-0.75c-0.3-0.1-0.6-0.19-0.91-0.25
						c-0.25-0.04-0.56-0.1-0.79,0.02C154.83,787.52,154.82,787.59,154.86,787.62L154.86,787.62z"/>
				</g>
			</g>
			<g>
				<g>
					<path class="st4" d="M163.89,800.52c0.25-0.04,0.47-0.26,0.66-0.42c0.22-0.19,0.42-0.4,0.62-0.61c0.44-0.48,0.85-1,1.26-1.51
						c0.43-0.53,0.86-1.07,1.29-1.6c0.21-0.26,0.42-0.52,0.63-0.78c0.19-0.24,0.47-0.48,0.46-0.81c0-0.12-0.1-0.18-0.21-0.16
						c-0.3,0.06-0.46,0.35-0.64,0.58c-0.21,0.26-0.41,0.52-0.62,0.79c-0.42,0.54-0.85,1.08-1.27,1.62
						c-0.39,0.49-0.76,0.99-1.15,1.48c-0.18,0.23-0.37,0.45-0.57,0.67c-0.18,0.2-0.45,0.39-0.56,0.64
						C163.76,800.46,163.81,800.53,163.89,800.52L163.89,800.52z"/>
				</g>
			</g>
			<g>
				<g>
					<path class="st4" d="M174,798.66c-0.15-0.39-0.48-0.62-0.8-0.87c-0.38-0.3-0.81-0.53-1.22-0.8c-0.43-0.28-0.84-0.59-1.25-0.91
						c-0.19-0.15-0.39-0.31-0.57-0.47c-0.2-0.18-0.39-0.37-0.63-0.5c-0.2-0.1-0.45,0.11-0.32,0.32c0.26,0.41,0.73,0.71,1.11,1
						c0.4,0.31,0.82,0.59,1.25,0.86c0.4,0.25,0.82,0.47,1.24,0.69c0.41,0.21,0.77,0.46,1.15,0.71
						C173.99,798.7,174.01,798.68,174,798.66L174,798.66z"/>
				</g>
			</g>
			<g>
				<g>
					<path class="st4" d="M155.28,783.94c0.58,0.13,1.26,0.02,1.86-0.02c0.61-0.05,1.22-0.1,1.83-0.16c0.61-0.06,1.22-0.13,1.82-0.2
						c0.32-0.04,0.65-0.09,0.97-0.12c0.3-0.03,0.61-0.04,0.9-0.12c0.22-0.06,0.18-0.41-0.06-0.41c-0.3,0-0.6,0.09-0.9,0.14
						c-0.3,0.05-0.61,0.09-0.92,0.13c-0.63,0.08-1.25,0.15-1.88,0.21c-0.61,0.06-1.22,0.11-1.83,0.16
						c-0.58,0.04-1.24,0.02-1.79,0.21C155.2,783.79,155.18,783.92,155.28,783.94L155.28,783.94z"/>
				</g>
			</g>
			<g>
				<g>
					<path class="st4" d="M160.75,774.81c-0.24,0.59-0.23,1.22-0.2,1.84c0.04,0.64,0.14,1.26,0.26,1.89
						c0.12,0.63,0.25,1.26,0.37,1.88c0.06,0.32,0.12,0.65,0.16,0.97c0.04,0.31,0.07,0.65,0.23,0.93c0.07,0.13,0.24,0.08,0.29-0.04
						c0.19-0.53-0.03-1.24-0.13-1.78c-0.12-0.65-0.27-1.29-0.4-1.94c-0.13-0.64-0.24-1.28-0.32-1.93c-0.07-0.61-0.06-1.23-0.14-1.84
						C160.86,774.74,160.77,774.76,160.75,774.81L160.75,774.81z"/>
				</g>
			</g>
		</g>
		<g>
			<g>
				<g>
					<path class="st4" d="M464.1,892.57c-0.14,0.8-0.17,1.61-0.21,2.42c-0.05,0.87-0.07,1.75-0.1,2.62
						c-0.06,1.94-0.11,3.88-0.14,5.83c-0.06,4.28-0.06,8.56-0.07,12.85c0,4.29,0.06,8.58,0.13,12.87c0.05,3.54,0.11,7.09,0.17,10.63
						c0.02,1.29,0.05,2.58,0.08,3.87c0.01,0.49,0.02,0.97,0.03,1.46c0.01,0.37-0.05,0.84,0.09,1.18c0.06,0.16,0.12,0.37,0.24,0.49
						c-0.03-0.08-0.07-0.17-0.1-0.25c0,0.14,0.03,0.29,0.05,0.43c0,0.02,0,0.04,0.01,0.06c0,0.01,0,0.02,0,0.02
						c0,0.03,0.01,0.06,0.01,0.09c0.03,0.16,0.04-0.04-0.01-0.07c0,0,0,0.03,0,0.04c0.01,0.38,0.61,0.38,0.6,0
						c0-0.01-0.01-0.03,0-0.04c0,0-0.05,0.22-0.02,0.1c0.01-0.04,0.02-0.08,0.03-0.12c0-0.01,0-0.02,0-0.02c0-0.02,0-0.04,0-0.07
						c0.01-0.14,0.03-0.29,0.03-0.43c-0.03,0.08-0.07,0.17-0.1,0.25c0.25-0.28,0.28-0.75,0.27-1.1c-0.01-0.43-0.03-0.85-0.04-1.28
						c-0.04-1.19-0.07-2.38-0.11-3.57c-0.1-3.41-0.19-6.81-0.26-10.22c-0.09-4.21-0.16-8.42-0.21-12.63
						c-0.05-4.33-0.11-8.66-0.1-12.99c0.01-3.74,0.05-7.47,0.12-11.21c0.01-0.38,0-0.76-0.03-1.14
						C464.45,892.43,464.14,892.35,464.1,892.57L464.1,892.57z"/>
				</g>
			</g>
			<g>
				<g>
					<path class="st4" d="M489.85,901.92c-0.75,0.42-1.41,0.95-2.12,1.44c-0.75,0.51-1.47,1.06-2.21,1.59
						c-1.52,1.09-3.05,2.17-4.58,3.25c-3.27,2.31-6.57,4.58-9.88,6.84c-3.42,2.33-6.86,4.64-10.31,6.93
						c-3.36,2.24-6.73,4.45-10.11,6.66c-1.59,1.03-3.18,2.07-4.77,3.09c-0.76,0.49-1.52,0.98-2.29,1.47
						c-0.73,0.47-1.49,0.92-2.2,1.43c-0.35,0.26-0.67,0.56-0.99,0.85c-0.22,0.21,0.01,0.67,0.31,0.54c0.4-0.17,0.81-0.32,1.18-0.53
						c0.38-0.21,0.75-0.46,1.12-0.7c0.75-0.48,1.5-0.97,2.24-1.46c1.58-1.03,3.16-2.06,4.74-3.1c3.35-2.2,6.69-4.42,10.02-6.65
						c3.44-2.31,6.86-4.64,10.27-7c3.32-2.3,6.62-4.62,9.9-6.98c2.99-2.16,5.96-4.35,8.86-6.62c0.34-0.27,0.66-0.54,0.97-0.85
						C490.11,902.01,489.97,901.84,489.85,901.92L489.85,901.92z"/>
				</g>
			</g>
			<g>
				<g>
					<path class="st4" d="M441.19,904.89c0.64,0.7,1.36,1.31,2.09,1.92c0.72,0.61,1.47,1.2,2.22,1.79c1.49,1.17,3.01,2.29,4.56,3.38
						c3.12,2.2,6.34,4.27,9.65,6.19c3.29,1.91,6.66,3.67,10.1,5.29c3.54,1.66,7.16,3.13,10.74,4.68c3.57,1.55,7.12,3.17,10.47,5.15
						c0.21,0.13,0.42,0.27,0.64,0.38c0.22,0.11,0.46,0.18,0.69,0.26c0.37,0.13,0.63-0.38,0.37-0.64c-0.16-0.16-0.32-0.34-0.5-0.47
						c-0.22-0.15-0.46-0.28-0.69-0.41c-0.41-0.24-0.82-0.48-1.24-0.71c-0.85-0.47-1.71-0.92-2.58-1.36
						c-1.74-0.87-3.51-1.68-5.29-2.46c-3.58-1.56-7.21-2.98-10.78-4.58c-3.47-1.55-6.88-3.25-10.2-5.1
						c-3.32-1.85-6.57-3.84-9.72-5.96c-3.15-2.13-6.19-4.4-9.2-6.72c-0.38-0.29-0.77-0.57-1.18-0.82
						C441.21,904.62,441.1,904.79,441.19,904.89L441.19,904.89z"/>
				</g>
			</g>
			<g>
				<g>
					<path class="st4" d="M471.41,894.35c-1.22,1.27-2.34,2.63-3.48,3.98c-0.55,0.66-1.11,1.32-1.66,1.98
						c-0.56,0.67-1.2,1.31-1.68,2.04c-0.17,0.26,0.21,0.54,0.42,0.33c0.62-0.61,1.13-1.36,1.67-2.04c0.55-0.69,1.11-1.38,1.66-2.07
						c1.09-1.36,2.18-2.7,3.18-4.13C471.58,894.37,471.47,894.29,471.41,894.35L471.41,894.35z"/>
				</g>
			</g>
			<g>
				<g>
					<path class="st4" d="M456.13,894.03c1.07,1.67,2.59,2.96,4.1,4.21c0.77,0.63,1.54,1.26,2.29,1.9c0.37,0.32,0.74,0.64,1.1,0.96
						c0.37,0.34,0.72,0.76,1.13,1.04c0.26,0.18,0.61-0.18,0.43-0.43c-0.27-0.4-0.7-0.73-1.06-1.05c-0.38-0.34-0.76-0.66-1.15-0.98
						c-0.76-0.62-1.54-1.21-2.31-1.81c-1.56-1.22-3.07-2.5-4.48-3.89C456.16,893.95,456.11,893.99,456.13,894.03L456.13,894.03z"/>
				</g>
			</g>
			<g>
				<g>
					<path class="st4" d="M484.79,898.06c-0.63,0.46-0.98,1.3-1.28,1.99c-0.33,0.78-0.59,1.59-0.85,2.39
						c-0.6,1.87-1.2,3.74-1.85,5.6c-0.12,0.36,0.46,0.52,0.57,0.16c0.51-1.83,1.08-3.65,1.64-5.46c0.25-0.8,0.49-1.6,0.79-2.38
						c0.15-0.4,0.34-0.79,0.52-1.17c0.17-0.35,0.38-0.7,0.51-1.07C484.87,898.08,484.83,898.04,484.79,898.06L484.79,898.06z"/>
				</g>
			</g>
			<g>
				<g>
					<path class="st4" d="M490.95,910.15c-2.86-0.68-5.83-0.91-8.46-2.34c-0.37-0.2-0.7,0.37-0.33,0.56c2.66,1.4,5.8,1.9,8.78,1.87
						C490.99,910.25,491.01,910.16,490.95,910.15L490.95,910.15z"/>
				</g>
			</g>
			<g>
				<g>
					<path class="st4" d="M494.54,926.06c-0.37-0.11-0.83-0.01-1.21,0.03c-0.42,0.04-0.83,0.11-1.25,0.18
						c-0.9,0.15-1.78,0.35-2.66,0.56c-1.75,0.43-3.47,0.93-5.2,1.42c-0.41,0.12-0.24,0.77,0.18,0.64c1.71-0.5,3.4-1.02,5.12-1.49
						c0.85-0.23,1.71-0.45,2.57-0.66c0.41-0.1,0.82-0.18,1.23-0.27c0.39-0.09,0.88-0.12,1.23-0.33
						C494.58,926.12,494.58,926.07,494.54,926.06L494.54,926.06z"/>
				</g>
			</g>
			<g>
				<g>
					<path class="st4" d="M486.17,939.41c0.02-0.86-0.19-1.72-0.33-2.56c-0.15-0.89-0.27-1.79-0.37-2.68
						c-0.1-0.88-0.18-1.77-0.23-2.65c-0.03-0.42-0.05-0.85-0.06-1.27c-0.02-0.45,0.02-0.93-0.07-1.37c-0.07-0.33-0.64-0.35-0.69,0
						c-0.07,0.44,0,0.92,0.03,1.37c0.03,0.44,0.06,0.89,0.1,1.33c0.08,0.89,0.18,1.79,0.31,2.68c0.12,0.88,0.28,1.75,0.46,2.62
						c0.18,0.87,0.33,1.78,0.75,2.57C486.09,939.49,486.16,939.46,486.17,939.41L486.17,939.41z"/>
				</g>
			</g>
			<g>
				<g>
					<path class="st4" d="M472.47,944.61c-1.16-1.24-2.39-2.4-3.57-3.61c-1.18-1.22-2.35-2.45-3.51-3.69
						c-0.26-0.28-0.69,0.14-0.43,0.43c1.18,1.25,2.35,2.51,3.58,3.7c1.2,1.17,2.45,2.34,3.88,3.24
						C472.46,944.71,472.51,944.65,472.47,944.61L472.47,944.61z"/>
				</g>
			</g>
			<g>
				<g>
					<path class="st4" d="M456.91,945.01c0.8-0.44,1.44-1.18,2.09-1.81c0.7-0.67,1.39-1.36,2.08-2.05c0.62-0.61,1.22-1.25,1.87-1.83
						c0.3-0.27,0.61-0.53,0.95-0.76c0.33-0.22,0.75-0.36,1.05-0.62c0.2-0.17,0.05-0.58-0.23-0.55c-0.39,0.04-0.77,0.29-1.09,0.51
						c-0.34,0.23-0.67,0.48-0.97,0.76c-0.67,0.59-1.29,1.25-1.91,1.89c-0.7,0.71-1.4,1.41-2.08,2.14c-0.65,0.68-1.43,1.36-1.88,2.2
						C456.73,944.97,456.83,945.06,456.91,945.01L456.91,945.01z"/>
				</g>
			</g>
			<g>
				<g>
					<path class="st4" d="M449.61,939.96c0.34-0.81,0.5-1.68,0.66-2.54c0.17-0.9,0.33-1.79,0.49-2.69c0.17-0.9,0.34-1.79,0.53-2.69
						c0.09-0.44,0.19-0.87,0.28-1.31c0.05-0.24,0.11-0.48,0.14-0.72c0.04-0.26,0.01-0.37-0.17-0.56c-0.03-0.03-0.09-0.05-0.14-0.04
						c-0.22,0.08-0.32,0.17-0.39,0.4c-0.07,0.21-0.1,0.44-0.15,0.65c-0.09,0.44-0.18,0.88-0.26,1.32c-0.17,0.9-0.33,1.8-0.48,2.7
						c-0.14,0.87-0.28,1.74-0.38,2.61c-0.05,0.44-0.1,0.88-0.13,1.33c-0.04,0.5-0.01,0.98-0.17,1.46
						C449.4,939.99,449.57,940.07,449.61,939.96L449.61,939.96z"/>
				</g>
			</g>
			<g>
				<g>
					<path class="st4" d="M441.35,925.72c0.89,0.13,1.76,0.35,2.64,0.52c0.87,0.16,1.73,0.35,2.57,0.62
						c0.84,0.27,1.65,0.62,2.44,0.99c0.84,0.39,1.69,0.75,2.5,1.19c0.46,0.25,0.79-0.48,0.28-0.68c-1.71-0.66-3.3-1.6-5.07-2.12
						c-0.87-0.25-1.75-0.43-2.64-0.56c-0.9-0.13-1.8-0.13-2.7-0.22C441.24,925.45,441.21,925.7,441.35,925.72L441.35,925.72z"/>
				</g>
			</g>
			<g>
				<g>
					<path class="st4" d="M449.21,902.16c-0.01,0.19-0.07,0.37-0.1,0.56c-0.02,0.18-0.01,0.37-0.01,0.56c0,0.35,0,0.7,0.01,1.05
						c0.03,0.74,0.05,1.48,0.07,2.22c0.02,0.72,0.03,1.44,0.04,2.16c0.01,0.73-0.04,1.5,0.04,2.23c0.05,0.44,0.68,0.46,0.7,0
						c0.04-0.73-0.05-1.49-0.09-2.23c-0.04-0.74-0.08-1.48-0.13-2.23c-0.05-0.72-0.09-1.44-0.14-2.16
						c-0.03-0.36-0.06-0.72-0.11-1.08c-0.02-0.17-0.04-0.34-0.07-0.51c-0.04-0.2-0.14-0.38-0.17-0.58
						C449.24,902.14,449.21,902.15,449.21,902.16L449.21,902.16z"/>
				</g>
			</g>
			<g>
				<g>
					<path class="st4" d="M441.08,912.31c1.4,0.22,2.83,0.11,4.24,0.09c0.7-0.01,1.41-0.03,2.11-0.04c0.74-0.02,1.5-0.07,2.24-0.03
						c0.4,0.02,0.39-0.66,0-0.62c-0.72,0.08-1.45,0.06-2.18,0.09c-0.73,0.02-1.45,0.05-2.18,0.07c-1.42,0.05-2.85,0.02-4.24,0.31
						C441.02,912.2,441.02,912.3,441.08,912.31L441.08,912.31z"/>
				</g>
			</g>
			<g>
				<g>
					<path class="st4" d="M484.56,915c-0.84-0.19-1.68-0.36-2.52-0.53c-0.82-0.17-1.64-0.35-2.47-0.46
						c-0.8-0.11-1.61-0.11-2.41-0.13c-0.41-0.01-0.82-0.03-1.22-0.08c-0.38-0.04-0.81-0.23-1.19-0.17c-0.13,0.02-0.18,0.22-0.08,0.3
						c0.28,0.22,0.69,0.23,1.03,0.27c0.4,0.05,0.81,0.06,1.22,0.06c0.84,0,1.68-0.04,2.51,0.04c1.72,0.16,3.41,0.53,5.12,0.75
						C484.58,915.05,484.59,915.01,484.56,915L484.56,915z"/>
				</g>
			</g>
			<g>
				<g>
					<path class="st4" d="M476.96,904.03c-0.84,1.37-1.3,2.92-1.78,4.44c-0.24,0.78-0.48,1.55-0.76,2.32
						c-0.14,0.38-0.28,0.75-0.44,1.13c-0.16,0.36-0.4,0.73-0.49,1.12c-0.05,0.21,0.23,0.41,0.38,0.22c0.23-0.28,0.35-0.66,0.49-1
						c0.15-0.37,0.29-0.75,0.43-1.14c0.27-0.79,0.51-1.58,0.74-2.38c0.46-1.57,0.95-3.13,1.53-4.66
						C477.09,904.02,477,903.98,476.96,904.03L476.96,904.03z"/>
				</g>
			</g>
			<g>
				<g>
					<path class="st4" d="M469.15,904.36c-1,0.95-1.97,1.93-2.9,2.96c-0.45,0.5-0.9,1-1.34,1.5c-0.24,0.27-0.47,0.53-0.71,0.8
						c-0.22,0.25-0.47,0.49-0.65,0.77c-0.14,0.22,0.16,0.41,0.34,0.26c0.25-0.21,0.45-0.5,0.67-0.75c0.22-0.25,0.44-0.51,0.66-0.76
						c0.45-0.52,0.9-1.05,1.36-1.57c0.9-1.03,1.78-2.07,2.66-3.11C469.3,904.39,469.22,904.3,469.15,904.36L469.15,904.36z"/>
				</g>
			</g>
			<g>
				<g>
					<path class="st4" d="M457.37,904.33c0.97,1.2,2.01,2.36,3.14,3.42c0.51,0.48,1.06,0.9,1.64,1.29c0.29,0.2,0.59,0.39,0.89,0.57
						c0.29,0.18,0.6,0.45,0.93,0.53c0.24,0.06,0.41-0.23,0.24-0.41c-0.22-0.24-0.58-0.37-0.86-0.53c-0.29-0.17-0.58-0.34-0.86-0.52
						c-0.62-0.4-1.21-0.83-1.75-1.34c-0.54-0.5-1.05-1.04-1.57-1.56c-0.55-0.55-1.12-1.06-1.71-1.56
						C457.4,904.15,457.31,904.25,457.37,904.33L457.37,904.33z"/>
				</g>
			</g>
			<g>
				<g>
					<path class="st4" d="M482.74,920.7c-1.25,0.38-2.48,0.87-3.7,1.36c-0.59,0.24-1.17,0.47-1.75,0.72
						c-0.3,0.13-0.6,0.26-0.89,0.39c-0.29,0.13-0.64,0.22-0.87,0.45c-0.15,0.15-0.05,0.46,0.18,0.44c0.29-0.02,0.55-0.18,0.82-0.3
						c0.3-0.14,0.59-0.27,0.89-0.41c0.61-0.28,1.21-0.57,1.82-0.85c1.19-0.56,2.39-1.1,3.54-1.73
						C482.81,920.76,482.78,920.69,482.74,920.7L482.74,920.7z"/>
				</g>
			</g>
			<g>
				<g>
					<path class="st4" d="M476.81,932.87c-0.08-1.36-0.25-2.71-0.45-4.07c-0.1-0.68-0.19-1.36-0.29-2.03
						c-0.05-0.33-0.1-0.65-0.15-0.98c-0.05-0.33-0.06-0.73-0.23-1.03c-0.1-0.17-0.39-0.15-0.44,0.06c-0.07,0.31,0.02,0.63,0.07,0.94
						c0.05,0.33,0.1,0.66,0.15,0.98c0.11,0.7,0.22,1.39,0.34,2.08c0.23,1.37,0.47,2.72,0.81,4.07
						C476.64,933,476.82,932.98,476.81,932.87L476.81,932.87z"/>
				</g>
			</g>
			<g>
				<g>
					<path class="st4" d="M455.63,932.1c0.07-0.27,0.19-0.53,0.26-0.8c0.08-0.27,0.13-0.55,0.19-0.83c0.12-0.55,0.23-1.11,0.34-1.66
						c0.11-0.56,0.24-1.11,0.36-1.66c0.1-0.42,0.36-1.03,0.16-1.45c-0.03-0.06-0.14-0.1-0.2-0.05c-0.37,0.28-0.41,0.93-0.51,1.35
						c-0.13,0.57-0.25,1.15-0.36,1.73c-0.11,0.56-0.2,1.12-0.28,1.68c-0.04,0.26-0.07,0.52-0.09,0.78c-0.02,0.3,0.02,0.6,0,0.9
						C455.52,932.15,455.62,932.16,455.63,932.1L455.63,932.1z"/>
				</g>
			</g>
			<g>
				<g>
					<path class="st4" d="M449.52,921.69c0.18,0.15,0.47,0.19,0.7,0.25c0.27,0.07,0.55,0.14,0.81,0.24
						c0.58,0.21,1.13,0.49,1.66,0.81c0.52,0.32,1.01,0.67,1.48,1.06c0.48,0.38,0.9,0.83,1.38,1.21c0.24,0.19,0.55-0.1,0.35-0.35
						c-0.41-0.48-0.95-0.9-1.45-1.29c-0.5-0.39-1.01-0.76-1.56-1.07c-0.52-0.3-1.07-0.56-1.65-0.75c-0.3-0.1-0.6-0.19-0.91-0.25
						c-0.25-0.04-0.56-0.1-0.79,0.02C449.5,921.58,449.49,921.65,449.52,921.69L449.52,921.69z"/>
				</g>
			</g>
			<g>
				<g>
					<path class="st4" d="M458.56,934.59c0.25-0.04,0.47-0.26,0.66-0.42c0.22-0.19,0.42-0.4,0.62-0.61c0.44-0.48,0.85-1,1.26-1.51
						c0.43-0.53,0.86-1.07,1.29-1.6c0.21-0.26,0.42-0.52,0.63-0.78c0.19-0.24,0.47-0.48,0.46-0.81c0-0.12-0.1-0.18-0.21-0.16
						c-0.3,0.06-0.46,0.35-0.64,0.58c-0.21,0.26-0.41,0.52-0.62,0.79c-0.42,0.54-0.85,1.08-1.27,1.62
						c-0.39,0.49-0.76,0.99-1.15,1.48c-0.18,0.23-0.37,0.45-0.57,0.67c-0.18,0.2-0.45,0.39-0.56,0.64
						C458.43,934.53,458.48,934.6,458.56,934.59L458.56,934.59z"/>
				</g>
			</g>
			<g>
				<g>
					<path class="st4" d="M468.67,932.73c-0.15-0.39-0.48-0.62-0.8-0.87c-0.38-0.3-0.81-0.53-1.22-0.8
						c-0.43-0.28-0.84-0.59-1.25-0.91c-0.19-0.15-0.39-0.31-0.57-0.47c-0.2-0.18-0.39-0.37-0.63-0.5c-0.2-0.1-0.45,0.11-0.32,0.32
						c0.26,0.41,0.73,0.71,1.11,1c0.4,0.31,0.82,0.59,1.25,0.86c0.4,0.25,0.82,0.47,1.24,0.69c0.41,0.21,0.77,0.46,1.15,0.71
						C468.65,932.77,468.68,932.75,468.67,932.73L468.67,932.73z"/>
				</g>
			</g>
			<g>
				<g>
					<path class="st4" d="M449.95,918.01c0.58,0.13,1.26,0.02,1.86-0.02c0.61-0.05,1.22-0.1,1.83-0.16c0.61-0.06,1.22-0.13,1.82-0.2
						c0.32-0.04,0.65-0.09,0.97-0.12c0.3-0.03,0.61-0.04,0.9-0.12c0.22-0.06,0.18-0.41-0.06-0.41c-0.3,0-0.6,0.09-0.9,0.14
						c-0.3,0.05-0.61,0.09-0.92,0.13c-0.63,0.08-1.25,0.15-1.88,0.21c-0.61,0.06-1.22,0.11-1.83,0.16
						c-0.58,0.04-1.24,0.02-1.79,0.21C449.86,917.85,449.85,917.99,449.95,918.01L449.95,918.01z"/>
				</g>
			</g>
			<g>
				<g>
					<path class="st4" d="M455.41,908.87c-0.24,0.59-0.24,1.22-0.2,1.84c0.04,0.64,0.14,1.26,0.26,1.89
						c0.12,0.63,0.25,1.26,0.37,1.88c0.06,0.32,0.12,0.65,0.16,0.97c0.04,0.31,0.07,0.65,0.23,0.93c0.07,0.13,0.24,0.08,0.29-0.04
						c0.19-0.53-0.03-1.24-0.13-1.78c-0.12-0.65-0.27-1.29-0.4-1.94c-0.13-0.64-0.24-1.28-0.32-1.93c-0.07-0.61-0.06-1.23-0.14-1.84
						C455.53,908.8,455.44,908.82,455.41,908.87L455.41,908.87z"/>
				</g>
			</g>
		</g>
		<g>
			<g>
				<g>
					<path class="st4" d="M142.48,927.22c-0.14,0.8-0.17,1.61-0.21,2.42c-0.05,0.87-0.07,1.75-0.1,2.62
						c-0.06,1.94-0.11,3.88-0.14,5.83c-0.06,4.28-0.06,8.56-0.07,12.85c0,4.29,0.06,8.58,0.13,12.87c0.05,3.54,0.11,7.09,0.17,10.63
						c0.02,1.29,0.05,2.58,0.08,3.87c0.01,0.49,0.02,0.97,0.03,1.46c0.01,0.37-0.05,0.84,0.09,1.18c0.06,0.16,0.12,0.37,0.24,0.49
						c-0.03-0.08-0.07-0.17-0.1-0.25c0,0.14,0.03,0.29,0.05,0.43c0,0.02,0,0.04,0.01,0.06c0,0.01,0,0.02,0,0.02
						c0,0.03,0.01,0.06,0.01,0.09c0.03,0.16,0.04-0.04-0.01-0.07c0,0,0,0.03,0,0.04c0.01,0.38,0.61,0.38,0.6,0
						c0-0.01-0.01-0.03,0-0.04c0,0-0.05,0.22-0.02,0.1c0.01-0.04,0.02-0.08,0.03-0.12c0-0.01,0-0.02,0-0.02c0-0.02,0-0.04,0-0.07
						c0.01-0.14,0.03-0.29,0.03-0.43c-0.03,0.08-0.07,0.17-0.1,0.25c0.25-0.28,0.28-0.75,0.27-1.1c-0.01-0.43-0.03-0.85-0.04-1.28
						c-0.04-1.19-0.07-2.38-0.11-3.57c-0.1-3.41-0.19-6.81-0.26-10.22c-0.09-4.21-0.16-8.42-0.21-12.63c-0.05-4.33-0.11-8.66-0.1-13
						c0.01-3.74,0.05-7.47,0.12-11.21c0.01-0.38,0-0.76-0.03-1.14C142.82,927.07,142.52,927,142.48,927.22L142.48,927.22z"/>
				</g>
			</g>
			<g>
				<g>
					<path class="st4" d="M168.22,936.56c-0.75,0.42-1.41,0.95-2.12,1.44c-0.75,0.51-1.47,1.06-2.21,1.59
						c-1.52,1.09-3.05,2.17-4.58,3.25c-3.27,2.31-6.57,4.58-9.88,6.84c-3.42,2.33-6.86,4.64-10.31,6.93
						c-3.36,2.24-6.73,4.45-10.11,6.66c-1.59,1.03-3.18,2.07-4.77,3.09c-0.76,0.49-1.52,0.98-2.29,1.47
						c-0.73,0.47-1.49,0.92-2.2,1.43c-0.35,0.26-0.67,0.56-0.99,0.85c-0.22,0.21,0.01,0.67,0.31,0.54c0.4-0.17,0.81-0.32,1.18-0.53
						c0.38-0.21,0.75-0.46,1.12-0.7c0.75-0.48,1.5-0.97,2.24-1.46c1.58-1.03,3.16-2.06,4.74-3.1c3.35-2.2,6.69-4.42,10.02-6.65
						c3.44-2.31,6.86-4.64,10.27-7c3.32-2.3,6.62-4.62,9.9-6.98c2.99-2.16,5.96-4.35,8.86-6.62c0.34-0.27,0.66-0.54,0.97-0.85
						C168.48,936.66,168.35,936.49,168.22,936.56L168.22,936.56z"/>
				</g>
			</g>
			<g>
				<g>
					<path class="st4" d="M119.56,939.54c0.64,0.7,1.36,1.31,2.09,1.92c0.72,0.61,1.47,1.2,2.22,1.79c1.49,1.17,3.01,2.29,4.56,3.38
						c3.12,2.2,6.34,4.27,9.65,6.19c3.29,1.91,6.66,3.67,10.1,5.29c3.54,1.66,7.16,3.13,10.74,4.68c3.57,1.55,7.12,3.17,10.47,5.15
						c0.21,0.13,0.42,0.27,0.64,0.38c0.22,0.11,0.46,0.18,0.69,0.26c0.37,0.13,0.63-0.38,0.37-0.64c-0.16-0.16-0.32-0.34-0.5-0.47
						c-0.22-0.15-0.46-0.28-0.69-0.41c-0.41-0.24-0.82-0.48-1.24-0.71c-0.85-0.47-1.71-0.92-2.58-1.36
						c-1.74-0.87-3.51-1.68-5.29-2.46c-3.58-1.56-7.21-2.98-10.78-4.58c-3.47-1.55-6.88-3.25-10.2-5.1
						c-3.32-1.85-6.57-3.84-9.72-5.96c-3.15-2.13-6.19-4.4-9.2-6.72c-0.38-0.29-0.77-0.57-1.18-0.82
						C119.59,939.27,119.47,939.44,119.56,939.54L119.56,939.54z"/>
				</g>
			</g>
			<g>
				<g>
					<path class="st4" d="M149.79,929c-1.22,1.27-2.34,2.63-3.48,3.98c-0.55,0.66-1.11,1.32-1.66,1.98
						c-0.56,0.67-1.2,1.32-1.68,2.04c-0.17,0.26,0.21,0.54,0.42,0.33c0.62-0.61,1.13-1.36,1.67-2.04c0.55-0.69,1.11-1.38,1.66-2.07
						c1.09-1.36,2.18-2.7,3.18-4.13C149.96,929.02,149.85,928.94,149.79,929L149.79,929z"/>
				</g>
			</g>
			<g>
				<g>
					<path class="st4" d="M134.51,928.67c1.07,1.67,2.59,2.96,4.1,4.21c0.77,0.63,1.54,1.26,2.29,1.9c0.37,0.32,0.74,0.64,1.1,0.96
						c0.37,0.34,0.72,0.76,1.13,1.04c0.26,0.18,0.61-0.18,0.43-0.43c-0.27-0.4-0.7-0.73-1.06-1.05c-0.38-0.34-0.76-0.66-1.15-0.98
						c-0.76-0.62-1.54-1.21-2.31-1.81c-1.56-1.22-3.07-2.5-4.48-3.89C134.54,928.59,134.48,928.63,134.51,928.67L134.51,928.67z"/>
				</g>
			</g>
			<g>
				<g>
					<path class="st4" d="M163.17,932.71c-0.63,0.46-0.98,1.3-1.28,1.99c-0.33,0.78-0.59,1.59-0.85,2.39
						c-0.6,1.87-1.2,3.74-1.85,5.6c-0.12,0.36,0.46,0.52,0.57,0.16c0.51-1.83,1.08-3.65,1.64-5.46c0.25-0.8,0.49-1.6,0.79-2.38
						c0.15-0.4,0.34-0.79,0.52-1.17c0.17-0.35,0.38-0.7,0.51-1.07C163.25,932.73,163.2,932.69,163.17,932.71L163.17,932.71z"/>
				</g>
			</g>
			<g>
				<g>
					<path class="st4" d="M169.33,944.8c-2.86-0.68-5.83-0.91-8.46-2.34c-0.37-0.2-0.7,0.37-0.33,0.56c2.66,1.4,5.8,1.9,8.78,1.87
						C169.37,944.9,169.38,944.81,169.33,944.8L169.33,944.8z"/>
				</g>
			</g>
			<g>
				<g>
					<path class="st4" d="M172.91,960.7c-0.37-0.11-0.83-0.01-1.21,0.03c-0.42,0.04-0.83,0.11-1.25,0.18
						c-0.9,0.15-1.78,0.35-2.66,0.56c-1.75,0.43-3.47,0.93-5.2,1.42c-0.41,0.12-0.24,0.77,0.18,0.64c1.7-0.5,3.41-1.02,5.12-1.49
						c0.85-0.23,1.71-0.45,2.57-0.66c0.41-0.1,0.82-0.18,1.23-0.27c0.39-0.09,0.88-0.12,1.23-0.33
						C172.96,960.77,172.95,960.72,172.91,960.7L172.91,960.7z"/>
				</g>
			</g>
			<g>
				<g>
					<path class="st4" d="M164.54,974.06c0.02-0.86-0.19-1.72-0.33-2.56c-0.15-0.89-0.27-1.79-0.37-2.68
						c-0.1-0.88-0.18-1.77-0.23-2.65c-0.03-0.42-0.05-0.85-0.06-1.27c-0.02-0.45,0.02-0.93-0.07-1.37c-0.07-0.33-0.64-0.35-0.69,0
						c-0.07,0.44,0,0.92,0.03,1.37c0.03,0.44,0.06,0.89,0.1,1.33c0.08,0.89,0.18,1.79,0.31,2.68c0.12,0.88,0.28,1.75,0.46,2.62
						c0.18,0.87,0.33,1.78,0.75,2.57C164.46,974.14,164.54,974.11,164.54,974.06L164.54,974.06z"/>
				</g>
			</g>
			<g>
				<g>
					<path class="st4" d="M150.85,979.26c-1.16-1.24-2.39-2.4-3.57-3.61c-1.18-1.22-2.35-2.45-3.5-3.7
						c-0.26-0.28-0.69,0.14-0.43,0.43c1.18,1.25,2.35,2.51,3.58,3.71c1.2,1.17,2.45,2.34,3.88,3.24
						C150.84,979.36,150.88,979.3,150.85,979.26L150.85,979.26z"/>
				</g>
			</g>
			<g>
				<g>
					<path class="st4" d="M135.29,979.66c0.8-0.44,1.44-1.18,2.09-1.81c0.7-0.67,1.39-1.36,2.08-2.05c0.62-0.62,1.22-1.25,1.87-1.83
						c0.3-0.27,0.61-0.53,0.95-0.76c0.33-0.22,0.75-0.36,1.05-0.62c0.2-0.17,0.05-0.58-0.23-0.55c-0.39,0.04-0.77,0.29-1.09,0.51
						c-0.34,0.23-0.67,0.48-0.97,0.76c-0.67,0.59-1.29,1.25-1.91,1.89c-0.7,0.71-1.4,1.41-2.08,2.14c-0.65,0.68-1.43,1.36-1.88,2.2
						C135.11,979.62,135.2,979.71,135.29,979.66L135.29,979.66z"/>
				</g>
			</g>
			<g>
				<g>
					<path class="st4" d="M127.99,974.61c0.34-0.81,0.5-1.68,0.66-2.54c0.17-0.9,0.33-1.79,0.49-2.69c0.17-0.9,0.34-1.79,0.53-2.69
						c0.09-0.44,0.19-0.87,0.28-1.31c0.05-0.24,0.11-0.48,0.14-0.72c0.04-0.26,0.01-0.37-0.17-0.56c-0.03-0.03-0.09-0.05-0.14-0.04
						c-0.22,0.08-0.32,0.17-0.39,0.4c-0.07,0.21-0.1,0.44-0.15,0.65c-0.09,0.44-0.18,0.88-0.26,1.32c-0.17,0.9-0.33,1.8-0.48,2.7
						c-0.14,0.87-0.28,1.74-0.38,2.61c-0.05,0.44-0.1,0.88-0.13,1.33c-0.04,0.5-0.01,0.98-0.17,1.46
						C127.78,974.64,127.95,974.71,127.99,974.61L127.99,974.61z"/>
				</g>
			</g>
			<g>
				<g>
					<path class="st4" d="M119.73,960.37c0.89,0.13,1.76,0.35,2.64,0.52c0.87,0.16,1.73,0.35,2.57,0.62
						c0.84,0.27,1.65,0.62,2.44,0.99c0.84,0.39,1.69,0.75,2.5,1.19c0.46,0.25,0.79-0.48,0.28-0.68c-1.71-0.66-3.3-1.6-5.07-2.12
						c-0.87-0.25-1.75-0.43-2.64-0.56c-0.9-0.13-1.8-0.13-2.7-0.22C119.62,960.1,119.59,960.35,119.73,960.37L119.73,960.37z"/>
				</g>
			</g>
			<g>
				<g>
					<path class="st4" d="M127.59,936.81c-0.01,0.19-0.07,0.37-0.1,0.56c-0.02,0.18-0.01,0.37-0.01,0.56c0,0.35,0,0.7,0.01,1.05
						c0.03,0.74,0.05,1.48,0.07,2.22c0.02,0.72,0.03,1.44,0.04,2.16c0.01,0.73-0.04,1.5,0.04,2.23c0.05,0.44,0.68,0.46,0.7,0
						c0.04-0.73-0.05-1.49-0.09-2.23c-0.04-0.74-0.08-1.48-0.13-2.23c-0.05-0.72-0.09-1.44-0.14-2.16
						c-0.03-0.36-0.06-0.72-0.11-1.08c-0.02-0.17-0.04-0.34-0.07-0.51c-0.04-0.2-0.14-0.38-0.17-0.58
						C127.62,936.79,127.59,936.8,127.59,936.81L127.59,936.81z"/>
				</g>
			</g>
			<g>
				<g>
					<path class="st4" d="M119.46,946.96c1.4,0.22,2.83,0.11,4.24,0.09c0.7-0.01,1.41-0.03,2.11-0.04c0.74-0.02,1.5-0.07,2.24-0.03
						c0.4,0.02,0.39-0.66,0-0.62c-0.72,0.08-1.45,0.06-2.18,0.09c-0.73,0.02-1.45,0.05-2.18,0.07c-1.42,0.05-2.85,0.02-4.24,0.31
						C119.4,946.85,119.4,946.95,119.46,946.96L119.46,946.96z"/>
				</g>
			</g>
			<g>
				<g>
					<path class="st4" d="M162.94,949.65c-0.84-0.19-1.68-0.36-2.52-0.53c-0.82-0.17-1.64-0.35-2.47-0.46
						c-0.8-0.11-1.61-0.11-2.41-0.13c-0.41-0.01-0.82-0.03-1.22-0.08c-0.38-0.04-0.81-0.22-1.19-0.17c-0.13,0.02-0.18,0.22-0.08,0.3
						c0.28,0.22,0.69,0.23,1.03,0.27c0.4,0.05,0.81,0.06,1.22,0.06c0.84,0,1.68-0.04,2.51,0.04c1.72,0.16,3.41,0.53,5.12,0.75
						C162.96,949.7,162.96,949.66,162.94,949.65L162.94,949.65z"/>
				</g>
			</g>
			<g>
				<g>
					<path class="st4" d="M155.34,938.68c-0.84,1.37-1.3,2.92-1.78,4.44c-0.24,0.78-0.48,1.55-0.76,2.32
						c-0.14,0.38-0.28,0.75-0.44,1.13c-0.16,0.36-0.4,0.73-0.49,1.12c-0.05,0.21,0.23,0.41,0.38,0.22c0.23-0.28,0.35-0.66,0.49-1
						c0.15-0.37,0.29-0.75,0.43-1.14c0.27-0.79,0.51-1.58,0.74-2.38c0.46-1.57,0.95-3.13,1.53-4.66
						C155.47,938.66,155.37,938.63,155.34,938.68L155.34,938.68z"/>
				</g>
			</g>
			<g>
				<g>
					<path class="st4" d="M147.53,939.01c-1,0.95-1.97,1.93-2.9,2.96c-0.45,0.5-0.9,1-1.34,1.5c-0.24,0.27-0.47,0.53-0.71,0.8
						c-0.22,0.25-0.47,0.49-0.65,0.77c-0.14,0.22,0.16,0.41,0.34,0.26c0.25-0.21,0.45-0.5,0.67-0.75c0.22-0.25,0.44-0.51,0.66-0.76
						c0.45-0.52,0.9-1.05,1.36-1.57c0.9-1.03,1.78-2.07,2.66-3.11C147.68,939.04,147.59,938.95,147.53,939.01L147.53,939.01z"/>
				</g>
			</g>
			<g>
				<g>
					<path class="st4" d="M135.74,938.97c0.97,1.2,2.01,2.36,3.14,3.42c0.51,0.48,1.06,0.9,1.64,1.29c0.29,0.2,0.59,0.39,0.89,0.57
						c0.29,0.18,0.6,0.45,0.93,0.53c0.24,0.06,0.41-0.23,0.24-0.41c-0.22-0.24-0.58-0.37-0.86-0.53c-0.29-0.17-0.58-0.34-0.86-0.52
						c-0.62-0.4-1.21-0.84-1.74-1.34c-0.54-0.5-1.05-1.04-1.57-1.56c-0.55-0.55-1.12-1.06-1.71-1.56
						C135.78,938.8,135.68,938.9,135.74,938.97L135.74,938.97z"/>
				</g>
			</g>
			<g>
				<g>
					<path class="st4" d="M161.11,955.35c-1.25,0.38-2.48,0.87-3.7,1.36c-0.59,0.24-1.17,0.47-1.75,0.72
						c-0.3,0.13-0.6,0.26-0.9,0.39c-0.29,0.13-0.64,0.22-0.87,0.45c-0.15,0.15-0.05,0.46,0.18,0.44c0.29-0.02,0.55-0.18,0.82-0.3
						c0.3-0.14,0.59-0.27,0.89-0.41c0.61-0.28,1.21-0.57,1.82-0.85c1.19-0.56,2.39-1.1,3.54-1.73
						C161.18,955.4,161.16,955.34,161.11,955.35L161.11,955.35z"/>
				</g>
			</g>
			<g>
				<g>
					<path class="st4" d="M155.19,967.51c-0.08-1.36-0.25-2.71-0.45-4.07c-0.1-0.68-0.19-1.36-0.29-2.03
						c-0.05-0.33-0.1-0.65-0.15-0.98c-0.05-0.33-0.06-0.73-0.23-1.03c-0.1-0.17-0.39-0.15-0.44,0.06c-0.07,0.31,0.02,0.63,0.07,0.94
						c0.05,0.33,0.1,0.66,0.15,0.98c0.11,0.7,0.22,1.39,0.34,2.08c0.23,1.37,0.47,2.72,0.81,4.07
						C155.02,967.65,155.2,967.63,155.19,967.51L155.19,967.51z"/>
				</g>
			</g>
			<g>
				<g>
					<path class="st4" d="M134.01,966.75c0.07-0.27,0.19-0.53,0.26-0.8c0.08-0.27,0.13-0.55,0.19-0.83
						c0.12-0.55,0.23-1.11,0.34-1.67c0.11-0.56,0.24-1.11,0.36-1.66c0.1-0.42,0.36-1.03,0.16-1.45c-0.03-0.06-0.14-0.1-0.2-0.05
						c-0.37,0.28-0.41,0.93-0.51,1.35c-0.13,0.57-0.25,1.15-0.36,1.73c-0.11,0.56-0.2,1.12-0.28,1.68
						c-0.04,0.26-0.07,0.52-0.09,0.78c-0.02,0.3,0.02,0.6,0,0.9C133.9,966.79,133.99,966.81,134.01,966.75L134.01,966.75z"/>
				</g>
			</g>
			<g>
				<g>
					<path class="st4" d="M127.9,956.33c0.18,0.15,0.47,0.19,0.7,0.25c0.27,0.07,0.55,0.14,0.81,0.24c0.58,0.21,1.13,0.49,1.66,0.81
						c0.52,0.32,1.01,0.67,1.48,1.06c0.48,0.38,0.9,0.83,1.38,1.21c0.24,0.19,0.55-0.1,0.35-0.35c-0.41-0.48-0.95-0.9-1.45-1.29
						c-0.5-0.39-1.01-0.76-1.56-1.07c-0.52-0.3-1.07-0.56-1.65-0.75c-0.3-0.1-0.6-0.19-0.91-0.25c-0.25-0.04-0.56-0.1-0.79,0.02
						C127.87,956.23,127.86,956.3,127.9,956.33L127.9,956.33z"/>
				</g>
			</g>
			<g>
				<g>
					<path class="st4" d="M136.93,969.23c0.25-0.04,0.47-0.26,0.66-0.42c0.22-0.19,0.42-0.4,0.62-0.61c0.44-0.48,0.85-1,1.26-1.51
						c0.43-0.53,0.86-1.07,1.29-1.6c0.21-0.26,0.42-0.52,0.63-0.78c0.19-0.24,0.47-0.48,0.46-0.81c0-0.12-0.1-0.18-0.21-0.16
						c-0.3,0.06-0.46,0.35-0.64,0.58c-0.21,0.26-0.41,0.52-0.62,0.79c-0.42,0.54-0.85,1.08-1.27,1.62
						c-0.39,0.49-0.76,0.99-1.15,1.48c-0.18,0.23-0.37,0.45-0.57,0.67c-0.18,0.2-0.45,0.39-0.56,0.64
						C136.8,969.18,136.85,969.25,136.93,969.23L136.93,969.23z"/>
				</g>
			</g>
			<g>
				<g>
					<path class="st4" d="M147.05,967.37c-0.15-0.39-0.48-0.62-0.8-0.87c-0.38-0.3-0.81-0.53-1.22-0.8
						c-0.43-0.28-0.84-0.59-1.25-0.91c-0.19-0.15-0.39-0.31-0.57-0.47c-0.2-0.18-0.39-0.37-0.63-0.5c-0.2-0.1-0.45,0.11-0.32,0.32
						c0.26,0.41,0.73,0.71,1.11,1c0.4,0.31,0.82,0.59,1.25,0.86c0.4,0.25,0.82,0.47,1.24,0.69c0.41,0.21,0.77,0.46,1.15,0.71
						C147.03,967.41,147.06,967.4,147.05,967.37L147.05,967.37z"/>
				</g>
			</g>
			<g>
				<g>
					<path class="st4" d="M128.33,952.66c0.58,0.13,1.26,0.02,1.86-0.02c0.61-0.05,1.22-0.1,1.83-0.16s1.22-0.13,1.82-0.2
						c0.32-0.04,0.65-0.09,0.97-0.12c0.3-0.03,0.61-0.04,0.9-0.12c0.22-0.06,0.18-0.41-0.06-0.41c-0.3,0-0.6,0.09-0.9,0.14
						c-0.3,0.05-0.61,0.09-0.92,0.13c-0.63,0.08-1.25,0.15-1.88,0.21c-0.61,0.06-1.22,0.11-1.83,0.16
						c-0.58,0.04-1.24,0.02-1.79,0.21C128.24,952.5,128.23,952.63,128.33,952.66L128.33,952.66z"/>
				</g>
			</g>
			<g>
				<g>
					<path class="st4" d="M133.79,943.52c-0.24,0.59-0.24,1.22-0.2,1.84c0.04,0.64,0.14,1.26,0.26,1.89
						c0.12,0.63,0.25,1.26,0.37,1.88c0.06,0.32,0.12,0.65,0.16,0.97c0.04,0.31,0.07,0.65,0.23,0.93c0.07,0.13,0.24,0.08,0.29-0.04
						c0.19-0.53-0.03-1.24-0.13-1.78c-0.12-0.65-0.27-1.29-0.4-1.94c-0.13-0.64-0.24-1.28-0.32-1.93c-0.07-0.61-0.05-1.23-0.14-1.84
						C133.91,943.45,133.81,943.47,133.79,943.52L133.79,943.52z"/>
				</g>
			</g>
		</g>
	</g>
</g>
</svg>
